<?xml version='1.0' encoding='UTF-8' standalone='no'?>
<svg xmlns="http://www.w3.org/2000/svg" xmlns:xlink="http://www.w3.org/1999/xlink" width="1026pt" viewBox="0 0 1026 1542" height="1542pt">
 <title>Figure 1</title>
 <desc>
Creator: GL2PS 1.4.2, (C) 1999-2020 C. Geuzaine
For: Octave
CreationDate: Tue Jan 17 05:44:45 2023
</desc>
 <defs/>
 <polygon points="0,0 1026,0 1026,1542 0,1542" fill="#ffffff"/>
 <g>
  <polygon points="0,1542 1026,1542 1026,0 0,0" shape-rendering="crispEdges" fill="#ffffff"/>
  <clipPath id="cp0010261542">
   <polygon points="0,1542 1026,1542 1026,0 0,0"/>
  </clipPath>
  <g clip-path="url(#cp0010261542)">
   <polygon points="133.419,1373.11 928.802,1373.11 928.802,115.712 133.419,115.712" shape-rendering="crispEdges" fill="#ffffff"/>
   <polyline points="133.419,1373.11 133.419,115.712" stroke-linejoin="miter" stroke-dasharray="16,0" stroke="#262626" fill="none" stroke-opacity="0.15" stroke-width="0.5" stroke-linecap="butt"/>
   <polyline points="292.496,1373.11 292.496,115.712" stroke-linejoin="miter" stroke-dasharray="16,0" stroke="#262626" fill="none" stroke-opacity="0.15" stroke-width="0.5" stroke-linecap="butt"/>
   <polyline points="451.572,1373.11 451.572,115.712" stroke-linejoin="miter" stroke-dasharray="16,0" stroke="#262626" fill="none" stroke-opacity="0.15" stroke-width="0.5" stroke-linecap="butt"/>
   <polyline points="610.649,1373.11 610.649,115.712" stroke-linejoin="miter" stroke-dasharray="16,0" stroke="#262626" fill="none" stroke-opacity="0.15" stroke-width="0.5" stroke-linecap="butt"/>
   <polyline points="769.726,1373.11 769.726,115.712" stroke-linejoin="miter" stroke-dasharray="16,0" stroke="#262626" fill="none" stroke-opacity="0.15" stroke-width="0.5" stroke-linecap="butt"/>
   <polyline points="928.802,1373.11 928.802,115.712" stroke-linejoin="miter" stroke-dasharray="16,0" stroke="#262626" fill="none" stroke-opacity="0.15" stroke-width="0.5" stroke-linecap="butt"/>
   <polyline points="133.419,1373.11 133.419,1360.54" stroke-linejoin="miter" stroke="#262626" fill="none" stroke-width="0.5" stroke-linecap="butt"/>
   <polyline points="133.419,115.712 133.419,128.29" stroke-linejoin="miter" stroke="#262626" fill="none" stroke-width="0.5" stroke-linecap="butt"/>
   <polyline points="292.496,1373.11 292.496,1360.54" stroke-linejoin="miter" stroke="#262626" fill="none" stroke-width="0.5" stroke-linecap="butt"/>
   <polyline points="292.496,115.712 292.496,128.29" stroke-linejoin="miter" stroke="#262626" fill="none" stroke-width="0.5" stroke-linecap="butt"/>
   <polyline points="451.572,1373.11 451.572,1360.54" stroke-linejoin="miter" stroke="#262626" fill="none" stroke-width="0.5" stroke-linecap="butt"/>
   <polyline points="451.572,115.712 451.572,128.29" stroke-linejoin="miter" stroke="#262626" fill="none" stroke-width="0.5" stroke-linecap="butt"/>
   <polyline points="610.649,1373.11 610.649,1360.54" stroke-linejoin="miter" stroke="#262626" fill="none" stroke-width="0.5" stroke-linecap="butt"/>
   <polyline points="610.649,115.712 610.649,128.29" stroke-linejoin="miter" stroke="#262626" fill="none" stroke-width="0.5" stroke-linecap="butt"/>
   <polyline points="769.726,1373.11 769.726,1360.54" stroke-linejoin="miter" stroke="#262626" fill="none" stroke-width="0.5" stroke-linecap="butt"/>
   <polyline points="769.726,115.712 769.726,128.29" stroke-linejoin="miter" stroke="#262626" fill="none" stroke-width="0.5" stroke-linecap="butt"/>
   <polyline points="928.802,1373.11 928.802,1360.54" stroke-linejoin="miter" stroke="#262626" fill="none" stroke-width="0.5" stroke-linecap="butt"/>
   <polyline points="928.802,115.712 928.802,128.29" stroke-linejoin="miter" stroke="#262626" fill="none" stroke-width="0.5" stroke-linecap="butt"/>
   <g font-family="FreeSans" font-weight="normal" xml:space="preserve" font-style="normal" transform="translate(130.419,1388.62) rotate(-0,3,-8)" font-size="10">
    <text x="0 " y="-0" fill="rgb(38,38,38)">0</text>
   </g>
   <g font-family="FreeSans" font-weight="normal" xml:space="preserve" font-style="normal" transform="translate(284.996,1388.62) rotate(-0,7.5,-8)" font-size="10">
    <text x="0 6 9 " y="-0" fill="rgb(38,38,38)">0.2</text>
   </g>
   <g font-family="FreeSans" font-weight="normal" xml:space="preserve" font-style="normal" transform="translate(444.072,1388.62) rotate(-0,7.5,-8)" font-size="10">
    <text x="0 6 9 " y="-0" fill="rgb(38,38,38)">0.4</text>
   </g>
   <g font-family="FreeSans" font-weight="normal" xml:space="preserve" font-style="normal" transform="translate(603.149,1388.62) rotate(-0,7.5,-8)" font-size="10">
    <text x="0 6 9 " y="-0" fill="rgb(38,38,38)">0.6</text>
   </g>
   <g font-family="FreeSans" font-weight="normal" xml:space="preserve" font-style="normal" transform="translate(762.225,1388.62) rotate(-0,7.5,-8)" font-size="10">
    <text x="0 6 9 " y="-0" fill="rgb(38,38,38)">0.8</text>
   </g>
   <g font-family="FreeSans" font-weight="normal" xml:space="preserve" font-style="normal" transform="translate(925.802,1388.62) rotate(-0,3,-8)" font-size="10">
    <text x="0 " y="-0" fill="rgb(38,38,38)">1</text>
   </g>
   <polyline points="133.419,1373.11 928.802,1373.11" stroke-linejoin="miter" stroke-dasharray="16,0" stroke="#262626" fill="none" stroke-opacity="0.15" stroke-width="0.5" stroke-linecap="butt"/>
   <polyline points="133.419,1193.48 928.802,1193.48" stroke-linejoin="miter" stroke-dasharray="16,0" stroke="#262626" fill="none" stroke-opacity="0.15" stroke-width="0.5" stroke-linecap="butt"/>
   <polyline points="133.419,1013.86 928.802,1013.86" stroke-linejoin="miter" stroke-dasharray="16,0" stroke="#262626" fill="none" stroke-opacity="0.15" stroke-width="0.5" stroke-linecap="butt"/>
   <polyline points="133.419,834.227 928.802,834.227" stroke-linejoin="miter" stroke-dasharray="16,0" stroke="#262626" fill="none" stroke-opacity="0.15" stroke-width="0.5" stroke-linecap="butt"/>
   <polyline points="133.419,654.598 928.802,654.598" stroke-linejoin="miter" stroke-dasharray="16,0" stroke="#262626" fill="none" stroke-opacity="0.15" stroke-width="0.5" stroke-linecap="butt"/>
   <polyline points="133.419,474.97 928.802,474.97" stroke-linejoin="miter" stroke-dasharray="16,0" stroke="#262626" fill="none" stroke-opacity="0.15" stroke-width="0.5" stroke-linecap="butt"/>
   <polyline points="133.419,295.341 928.802,295.341" stroke-linejoin="miter" stroke-dasharray="16,0" stroke="#262626" fill="none" stroke-opacity="0.15" stroke-width="0.5" stroke-linecap="butt"/>
   <polyline points="133.419,115.712 928.802,115.712" stroke-linejoin="miter" stroke-dasharray="16,0" stroke="#262626" fill="none" stroke-opacity="0.15" stroke-width="0.5" stroke-linecap="butt"/>
   <polyline points="133.419,1373.11 145.999,1373.11" stroke-linejoin="miter" stroke="#262626" fill="none" stroke-width="0.5" stroke-linecap="butt"/>
   <polyline points="928.802,1373.11 916.222,1373.11" stroke-linejoin="miter" stroke="#262626" fill="none" stroke-width="0.5" stroke-linecap="butt"/>
   <polyline points="133.419,1193.48 145.999,1193.48" stroke-linejoin="miter" stroke="#262626" fill="none" stroke-width="0.5" stroke-linecap="butt"/>
   <polyline points="928.802,1193.48 916.222,1193.48" stroke-linejoin="miter" stroke="#262626" fill="none" stroke-width="0.5" stroke-linecap="butt"/>
   <polyline points="133.419,1013.86 145.999,1013.86" stroke-linejoin="miter" stroke="#262626" fill="none" stroke-width="0.5" stroke-linecap="butt"/>
   <polyline points="928.802,1013.86 916.222,1013.86" stroke-linejoin="miter" stroke="#262626" fill="none" stroke-width="0.5" stroke-linecap="butt"/>
   <polyline points="133.419,834.227 145.999,834.227" stroke-linejoin="miter" stroke="#262626" fill="none" stroke-width="0.5" stroke-linecap="butt"/>
   <polyline points="928.802,834.227 916.222,834.227" stroke-linejoin="miter" stroke="#262626" fill="none" stroke-width="0.5" stroke-linecap="butt"/>
   <polyline points="133.419,654.598 145.999,654.598" stroke-linejoin="miter" stroke="#262626" fill="none" stroke-width="0.5" stroke-linecap="butt"/>
   <polyline points="928.802,654.598 916.222,654.598" stroke-linejoin="miter" stroke="#262626" fill="none" stroke-width="0.5" stroke-linecap="butt"/>
   <polyline points="133.419,474.97 145.999,474.97" stroke-linejoin="miter" stroke="#262626" fill="none" stroke-width="0.5" stroke-linecap="butt"/>
   <polyline points="928.802,474.97 916.222,474.97" stroke-linejoin="miter" stroke="#262626" fill="none" stroke-width="0.5" stroke-linecap="butt"/>
   <polyline points="133.419,295.341 145.999,295.341" stroke-linejoin="miter" stroke="#262626" fill="none" stroke-width="0.5" stroke-linecap="butt"/>
   <polyline points="928.802,295.341 916.222,295.341" stroke-linejoin="miter" stroke="#262626" fill="none" stroke-width="0.5" stroke-linecap="butt"/>
   <polyline points="133.419,115.712 145.999,115.712" stroke-linejoin="miter" stroke="#262626" fill="none" stroke-width="0.5" stroke-linecap="butt"/>
   <polyline points="928.802,115.712 916.222,115.712" stroke-linejoin="miter" stroke="#262626" fill="none" stroke-width="0.5" stroke-linecap="butt"/>
   <g font-family="FreeSans" font-weight="normal" xml:space="preserve" font-style="normal" transform="translate(122.417,1377.11) rotate(-0,6,-4)" font-size="10">
    <text x="0 " y="-0" fill="rgb(38,38,38)">0</text>
   </g>
   <g font-family="FreeSans" font-weight="normal" xml:space="preserve" font-style="normal" transform="translate(113.417,1197.48) rotate(-0,15,-4)" font-size="10">
    <text x="0 6 9 " y="-0" fill="rgb(38,38,38)">0.5</text>
   </g>
   <g font-family="FreeSans" font-weight="normal" xml:space="preserve" font-style="normal" transform="translate(122.417,1017.86) rotate(-0,6,-4)" font-size="10">
    <text x="0 " y="-0" fill="rgb(38,38,38)">1</text>
   </g>
   <g font-family="FreeSans" font-weight="normal" xml:space="preserve" font-style="normal" transform="translate(113.417,838.227) rotate(-0,15,-4)" font-size="10">
    <text x="0 6 9 " y="-0" fill="rgb(38,38,38)">1.5</text>
   </g>
   <g font-family="FreeSans" font-weight="normal" xml:space="preserve" font-style="normal" transform="translate(122.417,658.598) rotate(-0,6,-4)" font-size="10">
    <text x="0 " y="-0" fill="rgb(38,38,38)">2</text>
   </g>
   <g font-family="FreeSans" font-weight="normal" xml:space="preserve" font-style="normal" transform="translate(113.417,478.97) rotate(-0,15,-4)" font-size="10">
    <text x="0 6 9 " y="-0" fill="rgb(38,38,38)">2.5</text>
   </g>
   <g font-family="FreeSans" font-weight="normal" xml:space="preserve" font-style="normal" transform="translate(122.417,299.341) rotate(-0,6,-4)" font-size="10">
    <text x="0 " y="-0" fill="rgb(38,38,38)">3</text>
   </g>
   <g font-family="FreeSans" font-weight="normal" xml:space="preserve" font-style="normal" transform="translate(113.417,119.712) rotate(-0,15,-4)" font-size="10">
    <text x="0 6 9 " y="-0" fill="rgb(38,38,38)">3.5</text>
   </g>
   <polyline points="133.419,1373.11 928.802,1373.11" stroke-linejoin="miter" stroke-dasharray="16,0" stroke="#262626" fill="none" stroke-width="0.5" stroke-linecap="square"/>
   <polyline points="133.419,115.712 928.802,115.712" stroke-linejoin="miter" stroke-dasharray="16,0" stroke="#262626" fill="none" stroke-width="0.5" stroke-linecap="square"/>
   <polyline points="133.419,1373.11 133.419,115.712" stroke-linejoin="miter" stroke-dasharray="16,0" stroke="#262626" fill="none" stroke-width="0.5" stroke-linecap="square"/>
   <polyline points="928.802,1373.11 928.802,115.712" stroke-linejoin="miter" stroke-dasharray="16,0" stroke="#262626" fill="none" stroke-width="0.5" stroke-linecap="square"/>
   <g font-family="FreeSans" font-weight="bold" xml:space="preserve" font-style="normal" transform="translate(453.611,105.712) rotate(-0,77.5,0)" font-size="11">
    <text x="0 7 14 17 20 24 31 35 38 44 50 53 59 62 68 71 78 85 88 94 98 101 110 113 117 124 127 137 140 146 149 " y="-3" fill="rgb(0,0,0)">Sol for y2 via Euler with m = 5</text>
   </g>
   <g font-family="FreeSans" font-weight="normal" xml:space="preserve" font-style="normal" transform="translate(105.917,744.413) rotate(-90,2.5,0)" font-size="11">
    <text x="0 " y="-2" fill="rgb(38,38,38)">y</text>
   </g>
   <g font-family="FreeSans" font-weight="normal" xml:space="preserve" font-style="normal" transform="translate(528.611,1400.62) rotate(-0,2.5,-7)" font-size="11">
    <text x="0 " y="-0" fill="rgb(38,38,38)">x</text>
   </g>
   <polyline points="133.419,1373.11 292.496,1229.41 451.572,1059.84 610.649,853.483 769.726,595.163 928.802,263.726" stroke-linejoin="round" stroke="#0000ff" fill="none" stroke-width="2" stroke-linecap="butt"/>
   <polyline points="136.419,1373.11 135.846,1374.88 134.346,1375.97 132.492,1375.97 130.992,1374.88 130.419,1373.11 130.992,1371.35 132.492,1370.26 134.346,1370.26 135.846,1371.35 136.419,1373.11" stroke-linejoin="round" stroke="#0000ff" fill="none" stroke-width="2" stroke-linecap="round"/>
   <polyline points="295.496,1229.41 294.923,1231.17 293.423,1232.26 291.569,1232.26 290.069,1231.17 289.496,1229.41 290.069,1227.65 291.569,1226.56 293.423,1226.56 294.923,1227.65 295.496,1229.41" stroke-linejoin="round" stroke="#0000ff" fill="none" stroke-width="2" stroke-linecap="round"/>
   <polyline points="454.572,1059.84 453.999,1061.6 452.499,1062.69 450.645,1062.69 449.145,1061.6 448.572,1059.84 449.145,1058.08 450.645,1056.99 452.499,1056.99 453.999,1058.08 454.572,1059.84" stroke-linejoin="round" stroke="#0000ff" fill="none" stroke-width="2" stroke-linecap="round"/>
   <polyline points="613.649,853.483 613.076,855.247 611.576,856.337 609.722,856.337 608.222,855.247 607.649,853.483 608.222,851.72 609.722,850.63 611.576,850.63 613.076,851.72 613.649,853.483" stroke-linejoin="round" stroke="#0000ff" fill="none" stroke-width="2" stroke-linecap="round"/>
   <polyline points="772.725,595.163 772.153,596.926 770.653,598.016 768.798,598.016 767.298,596.926 766.725,595.163 767.298,593.399 768.798,592.31 770.653,592.31 772.153,593.399 772.725,595.163" stroke-linejoin="round" stroke="#0000ff" fill="none" stroke-width="2" stroke-linecap="round"/>
   <polyline points="931.802,263.726 931.229,265.489 929.729,266.579 927.875,266.579 926.375,265.489 925.802,263.726 926.375,261.963 927.875,260.873 929.729,260.873 931.229,261.963 931.802,263.726" stroke-linejoin="round" stroke="#0000ff" fill="none" stroke-width="2" stroke-linecap="round"/>
   <polyline points="133.419,1013.86 292.496,998.424 451.572,946.896 610.649,848.587 769.726,687.557 928.802,440.027" stroke-linejoin="round" stroke="#00ff00" fill="none" stroke-width="2" stroke-linecap="butt"/>
   <polyline points="108.419,1013.86 158.419,1013.86" stroke-linejoin="miter" stroke="#00ff00" fill="none" stroke-width="2" stroke-linecap="square"/>
   <polyline points="133.419,988.856 133.419,1038.86" stroke-linejoin="miter" stroke="#00ff00" fill="none" stroke-width="2" stroke-linecap="square"/>
   <polyline points="267.496,998.424 317.496,998.424" stroke-linejoin="miter" stroke="#00ff00" fill="none" stroke-width="2" stroke-linecap="square"/>
   <polyline points="292.496,973.424 292.496,1023.42" stroke-linejoin="miter" stroke="#00ff00" fill="none" stroke-width="2" stroke-linecap="square"/>
   <polyline points="426.572,946.896 476.572,946.896" stroke-linejoin="miter" stroke="#00ff00" fill="none" stroke-width="2" stroke-linecap="square"/>
   <polyline points="451.572,921.896 451.572,971.896" stroke-linejoin="miter" stroke="#00ff00" fill="none" stroke-width="2" stroke-linecap="square"/>
   <polyline points="585.649,848.587 635.649,848.587" stroke-linejoin="miter" stroke="#00ff00" fill="none" stroke-width="2" stroke-linecap="square"/>
   <polyline points="610.649,823.587 610.649,873.587" stroke-linejoin="miter" stroke="#00ff00" fill="none" stroke-width="2" stroke-linecap="square"/>
   <polyline points="744.725,687.557 794.725,687.557" stroke-linejoin="miter" stroke="#00ff00" fill="none" stroke-width="2" stroke-linecap="square"/>
   <polyline points="769.725,662.557 769.725,712.557" stroke-linejoin="miter" stroke="#00ff00" fill="none" stroke-width="2" stroke-linecap="square"/>
   <polyline points="903.802,440.027 953.802,440.027" stroke-linejoin="miter" stroke="#00ff00" fill="none" stroke-width="2" stroke-linecap="square"/>
   <polyline points="928.802,415.027 928.802,465.027" stroke-linejoin="miter" stroke="#00ff00" fill="none" stroke-width="2" stroke-linecap="square"/>
  </g>
  <clipPath id="cp0010261542">
   <polygon points="0,1542 1026,1542 1026,0 0,0"/>
  </clipPath>
  <g clip-path="url(#cp0010261542)">
   <polygon points="857.785,155.721 920.799,155.721 920.799,123.715 857.785,123.715" shape-rendering="crispEdges" fill="#ffffff"/>
   <polyline points="857.785,155.721 920.799,155.721" stroke-linejoin="miter" stroke-dasharray="16,0" stroke="#262626" fill="none" stroke-width="0.5" stroke-linecap="square"/>
   <polyline points="857.785,123.715 920.799,123.715" stroke-linejoin="miter" stroke-dasharray="16,0" stroke="#262626" fill="none" stroke-width="0.5" stroke-linecap="square"/>
   <polyline points="857.785,155.721 857.785,123.715" stroke-linejoin="miter" stroke-dasharray="16,0" stroke="#262626" fill="none" stroke-width="0.5" stroke-linecap="square"/>
   <polyline points="920.799,155.721 920.799,123.715" stroke-linejoin="miter" stroke-dasharray="16,0" stroke="#262626" fill="none" stroke-width="0.5" stroke-linecap="square"/>
   <polyline points="861.786,132.717 881.795,132.717" stroke-linejoin="round" stroke="#0000ff" fill="none" stroke-width="2" stroke-linecap="butt"/>
   <polyline points="874.791,132.717 874.218,134.48 872.718,135.57 870.864,135.57 869.364,134.48 868.791,132.717 869.364,130.954 870.864,129.864 872.718,129.864 874.218,130.954 874.791,132.717" stroke-linejoin="round" stroke="#0000ff" fill="none" stroke-width="0.5" stroke-linecap="round"/>
   <g font-family="FreeSans" font-weight="normal" xml:space="preserve" font-style="normal" transform="translate(885.797,137.717) rotate(-0,-0,-5)" font-size="9">
    <text x="0 4 " y="-2" fill="rgb(0,0,0)">y2</text>
   </g>
   <polyline points="861.786,146.719 881.795,146.719" stroke-linejoin="round" stroke="#00ff00" fill="none" stroke-width="2" stroke-linecap="butt"/>
   <polyline points="867.791,146.719 875.791,146.719" stroke-linejoin="miter" stroke="#00ff00" fill="none" stroke-width="0.5" stroke-linecap="square"/>
   <polyline points="871.791,142.719 871.791,150.719" stroke-linejoin="miter" stroke="#00ff00" fill="none" stroke-width="0.5" stroke-linecap="square"/>
   <g font-family="FreeSans" font-weight="normal" xml:space="preserve" font-style="normal" transform="translate(885.797,151.719) rotate(-0,-0,-5)" font-size="9">
    <text x="0 4 9 14 18 23 28 " y="-2" fill="rgb(0,0,0)">y2exact</text>
   </g>
  </g>
 </g>
</svg>
