<?xml version='1.0' encoding='UTF-8' standalone='no'?>
<svg xmlns="http://www.w3.org/2000/svg" xmlns:xlink="http://www.w3.org/1999/xlink" width="1026pt" height="1542pt" viewBox="0 0 1026 1542">
 <title>Figure 1</title>
 <desc>
Creator: GL2PS 1.4.2, (C) 1999-2020 C. Geuzaine
For: Octave
CreationDate: Tue Jan 17 05:44:55 2023
</desc>
 <defs/>
 <polygon fill="#ffffff" points="0,0 1026,0 1026,1542 0,1542"/>
 <g>
  <polygon fill="#ffffff" points="0,1542 1026,1542 1026,0 0,0" shape-rendering="crispEdges"/>
  <clipPath id="cp0010261542">
   <polygon points="0,1542 1026,1542 1026,0 0,0"/>
  </clipPath>
  <g clip-path="url(#cp0010261542)">
   <polygon fill="#ffffff" points="133.419,1373.11 928.802,1373.11 928.802,115.712 133.419,115.712" shape-rendering="crispEdges"/>
   <polyline stroke-width="0.5" stroke-dasharray="16,0" stroke="#262626" stroke-linecap="butt" fill="none" stroke-linejoin="miter" stroke-opacity="0.15" points="133.419,1373.11 133.419,115.712"/>
   <polyline stroke-width="0.5" stroke-dasharray="16,0" stroke="#262626" stroke-linecap="butt" fill="none" stroke-linejoin="miter" stroke-opacity="0.15" points="292.496,1373.11 292.496,115.712"/>
   <polyline stroke-width="0.5" stroke-dasharray="16,0" stroke="#262626" stroke-linecap="butt" fill="none" stroke-linejoin="miter" stroke-opacity="0.15" points="451.572,1373.11 451.572,115.712"/>
   <polyline stroke-width="0.5" stroke-dasharray="16,0" stroke="#262626" stroke-linecap="butt" fill="none" stroke-linejoin="miter" stroke-opacity="0.15" points="610.649,1373.11 610.649,115.712"/>
   <polyline stroke-width="0.5" stroke-dasharray="16,0" stroke="#262626" stroke-linecap="butt" fill="none" stroke-linejoin="miter" stroke-opacity="0.15" points="769.726,1373.11 769.726,115.712"/>
   <polyline stroke-width="0.5" stroke-dasharray="16,0" stroke="#262626" stroke-linecap="butt" fill="none" stroke-linejoin="miter" stroke-opacity="0.15" points="928.802,1373.11 928.802,115.712"/>
   <polyline stroke-width="0.5" stroke="#262626" stroke-linecap="butt" fill="none" stroke-linejoin="miter" points="133.419,1373.11 133.419,1360.54"/>
   <polyline stroke-width="0.5" stroke="#262626" stroke-linecap="butt" fill="none" stroke-linejoin="miter" points="133.419,115.712 133.419,128.29"/>
   <polyline stroke-width="0.5" stroke="#262626" stroke-linecap="butt" fill="none" stroke-linejoin="miter" points="292.496,1373.11 292.496,1360.54"/>
   <polyline stroke-width="0.5" stroke="#262626" stroke-linecap="butt" fill="none" stroke-linejoin="miter" points="292.496,115.712 292.496,128.29"/>
   <polyline stroke-width="0.5" stroke="#262626" stroke-linecap="butt" fill="none" stroke-linejoin="miter" points="451.572,1373.11 451.572,1360.54"/>
   <polyline stroke-width="0.5" stroke="#262626" stroke-linecap="butt" fill="none" stroke-linejoin="miter" points="451.572,115.712 451.572,128.29"/>
   <polyline stroke-width="0.5" stroke="#262626" stroke-linecap="butt" fill="none" stroke-linejoin="miter" points="610.649,1373.11 610.649,1360.54"/>
   <polyline stroke-width="0.5" stroke="#262626" stroke-linecap="butt" fill="none" stroke-linejoin="miter" points="610.649,115.712 610.649,128.29"/>
   <polyline stroke-width="0.5" stroke="#262626" stroke-linecap="butt" fill="none" stroke-linejoin="miter" points="769.726,1373.11 769.726,1360.54"/>
   <polyline stroke-width="0.5" stroke="#262626" stroke-linecap="butt" fill="none" stroke-linejoin="miter" points="769.726,115.712 769.726,128.29"/>
   <polyline stroke-width="0.5" stroke="#262626" stroke-linecap="butt" fill="none" stroke-linejoin="miter" points="928.802,1373.11 928.802,1360.54"/>
   <polyline stroke-width="0.5" stroke="#262626" stroke-linecap="butt" fill="none" stroke-linejoin="miter" points="928.802,115.712 928.802,128.29"/>
   <g font-style="normal" font-family="FreeSans" font-weight="normal" xml:space="preserve" transform="translate(130.419,1388.62) rotate(-0,3,-8)" font-size="10">
    <text x="0 " y="-0" fill="rgb(38,38,38)">0</text>
   </g>
   <g font-style="normal" font-family="FreeSans" font-weight="normal" xml:space="preserve" transform="translate(284.996,1388.62) rotate(-0,7.5,-8)" font-size="10">
    <text x="0 6 9 " y="-0" fill="rgb(38,38,38)">0.2</text>
   </g>
   <g font-style="normal" font-family="FreeSans" font-weight="normal" xml:space="preserve" transform="translate(444.072,1388.62) rotate(-0,7.5,-8)" font-size="10">
    <text x="0 6 9 " y="-0" fill="rgb(38,38,38)">0.4</text>
   </g>
   <g font-style="normal" font-family="FreeSans" font-weight="normal" xml:space="preserve" transform="translate(603.149,1388.62) rotate(-0,7.5,-8)" font-size="10">
    <text x="0 6 9 " y="-0" fill="rgb(38,38,38)">0.6</text>
   </g>
   <g font-style="normal" font-family="FreeSans" font-weight="normal" xml:space="preserve" transform="translate(762.225,1388.62) rotate(-0,7.5,-8)" font-size="10">
    <text x="0 6 9 " y="-0" fill="rgb(38,38,38)">0.8</text>
   </g>
   <g font-style="normal" font-family="FreeSans" font-weight="normal" xml:space="preserve" transform="translate(925.802,1388.62) rotate(-0,3,-8)" font-size="10">
    <text x="0 " y="-0" fill="rgb(38,38,38)">1</text>
   </g>
   <polyline stroke-width="0.5" stroke-dasharray="16,0" stroke="#262626" stroke-linecap="butt" fill="none" stroke-linejoin="miter" stroke-opacity="0.15" points="133.419,1373.11 928.802,1373.11"/>
   <polyline stroke-width="0.5" stroke-dasharray="16,0" stroke="#262626" stroke-linecap="butt" fill="none" stroke-linejoin="miter" stroke-opacity="0.15" points="133.419,1163.55 928.802,1163.55"/>
   <polyline stroke-width="0.5" stroke-dasharray="16,0" stroke="#262626" stroke-linecap="butt" fill="none" stroke-linejoin="miter" stroke-opacity="0.15" points="133.419,953.98 928.802,953.98"/>
   <polyline stroke-width="0.5" stroke-dasharray="16,0" stroke="#262626" stroke-linecap="butt" fill="none" stroke-linejoin="miter" stroke-opacity="0.15" points="133.419,744.413 928.802,744.413"/>
   <polyline stroke-width="0.5" stroke-dasharray="16,0" stroke="#262626" stroke-linecap="butt" fill="none" stroke-linejoin="miter" stroke-opacity="0.15" points="133.419,534.846 928.802,534.846"/>
   <polyline stroke-width="0.5" stroke-dasharray="16,0" stroke="#262626" stroke-linecap="butt" fill="none" stroke-linejoin="miter" stroke-opacity="0.15" points="133.419,325.279 928.802,325.279"/>
   <polyline stroke-width="0.5" stroke-dasharray="16,0" stroke="#262626" stroke-linecap="butt" fill="none" stroke-linejoin="miter" stroke-opacity="0.15" points="133.419,115.712 928.802,115.712"/>
   <polyline stroke-width="0.5" stroke="#262626" stroke-linecap="butt" fill="none" stroke-linejoin="miter" points="133.419,1373.11 145.999,1373.11"/>
   <polyline stroke-width="0.5" stroke="#262626" stroke-linecap="butt" fill="none" stroke-linejoin="miter" points="928.802,1373.11 916.222,1373.11"/>
   <polyline stroke-width="0.5" stroke="#262626" stroke-linecap="butt" fill="none" stroke-linejoin="miter" points="133.419,1163.55 145.999,1163.55"/>
   <polyline stroke-width="0.5" stroke="#262626" stroke-linecap="butt" fill="none" stroke-linejoin="miter" points="928.802,1163.55 916.222,1163.55"/>
   <polyline stroke-width="0.5" stroke="#262626" stroke-linecap="butt" fill="none" stroke-linejoin="miter" points="133.419,953.98 145.999,953.98"/>
   <polyline stroke-width="0.5" stroke="#262626" stroke-linecap="butt" fill="none" stroke-linejoin="miter" points="928.802,953.98 916.222,953.98"/>
   <polyline stroke-width="0.5" stroke="#262626" stroke-linecap="butt" fill="none" stroke-linejoin="miter" points="133.419,744.413 145.999,744.413"/>
   <polyline stroke-width="0.5" stroke="#262626" stroke-linecap="butt" fill="none" stroke-linejoin="miter" points="928.802,744.413 916.222,744.413"/>
   <polyline stroke-width="0.5" stroke="#262626" stroke-linecap="butt" fill="none" stroke-linejoin="miter" points="133.419,534.846 145.999,534.846"/>
   <polyline stroke-width="0.5" stroke="#262626" stroke-linecap="butt" fill="none" stroke-linejoin="miter" points="928.802,534.846 916.222,534.846"/>
   <polyline stroke-width="0.5" stroke="#262626" stroke-linecap="butt" fill="none" stroke-linejoin="miter" points="133.419,325.279 145.999,325.279"/>
   <polyline stroke-width="0.5" stroke="#262626" stroke-linecap="butt" fill="none" stroke-linejoin="miter" points="928.802,325.279 916.222,325.279"/>
   <polyline stroke-width="0.5" stroke="#262626" stroke-linecap="butt" fill="none" stroke-linejoin="miter" points="133.419,115.712 145.999,115.712"/>
   <polyline stroke-width="0.5" stroke="#262626" stroke-linecap="butt" fill="none" stroke-linejoin="miter" points="928.802,115.712 916.222,115.712"/>
   <g font-style="normal" font-family="FreeSans" font-weight="normal" xml:space="preserve" transform="translate(119.417,1377.11) rotate(-0,9,-4)" font-size="10">
    <text x="0 3 " y="-0" fill="rgb(38,38,38)">-1</text>
   </g>
   <g font-style="normal" font-family="FreeSans" font-weight="normal" xml:space="preserve" transform="translate(122.417,1167.55) rotate(-0,6,-4)" font-size="10">
    <text x="0 " y="-0" fill="rgb(38,38,38)">0</text>
   </g>
   <g font-style="normal" font-family="FreeSans" font-weight="normal" xml:space="preserve" transform="translate(122.417,957.98) rotate(-0,6,-4)" font-size="10">
    <text x="0 " y="-0" fill="rgb(38,38,38)">1</text>
   </g>
   <g font-style="normal" font-family="FreeSans" font-weight="normal" xml:space="preserve" transform="translate(122.417,748.413) rotate(-0,6,-4)" font-size="10">
    <text x="0 " y="-0" fill="rgb(38,38,38)">2</text>
   </g>
   <g font-style="normal" font-family="FreeSans" font-weight="normal" xml:space="preserve" transform="translate(122.417,538.846) rotate(-0,6,-4)" font-size="10">
    <text x="0 " y="-0" fill="rgb(38,38,38)">3</text>
   </g>
   <g font-style="normal" font-family="FreeSans" font-weight="normal" xml:space="preserve" transform="translate(122.417,329.279) rotate(-0,6,-4)" font-size="10">
    <text x="0 " y="-0" fill="rgb(38,38,38)">4</text>
   </g>
   <g font-style="normal" font-family="FreeSans" font-weight="normal" xml:space="preserve" transform="translate(122.417,119.712) rotate(-0,6,-4)" font-size="10">
    <text x="0 " y="-0" fill="rgb(38,38,38)">5</text>
   </g>
   <polyline stroke-width="0.5" stroke-dasharray="16,0" stroke="#262626" stroke-linecap="square" fill="none" stroke-linejoin="miter" points="133.419,1373.11 928.802,1373.11"/>
   <polyline stroke-width="0.5" stroke-dasharray="16,0" stroke="#262626" stroke-linecap="square" fill="none" stroke-linejoin="miter" points="133.419,115.712 928.802,115.712"/>
   <polyline stroke-width="0.5" stroke-dasharray="16,0" stroke="#262626" stroke-linecap="square" fill="none" stroke-linejoin="miter" points="133.419,1373.11 133.419,115.712"/>
   <polyline stroke-width="0.5" stroke-dasharray="16,0" stroke="#262626" stroke-linecap="square" fill="none" stroke-linejoin="miter" points="928.802,1373.11 928.802,115.712"/>
   <g font-style="normal" font-family="FreeSans" font-weight="normal" xml:space="preserve" transform="translate(528.611,1400.62) rotate(-0,2.5,-7)" font-size="11">
    <text x="0 " y="-0" fill="rgb(38,38,38)">x</text>
   </g>
   <g font-style="normal" font-family="FreeSans" font-weight="normal" xml:space="preserve" transform="translate(111.917,744.413) rotate(-90,2.5,0)" font-size="11">
    <text x="0 " y="-2" fill="rgb(38,38,38)">y</text>
   </g>
   <g font-style="normal" font-family="FreeSans" font-weight="bold" xml:space="preserve" transform="translate(453.611,105.712) rotate(-0,77.5,0)" font-size="11">
    <text x="0 7 14 17 20 24 31 35 38 44 47 53 56 62 65 72 79 82 88 92 95 104 107 111 118 121 131 134 140 143 149 " y="-3" fill="rgb(0,0,0)">Sol for y via Euler with m = 20</text>
   </g>
   <polyline stroke-width="2" stroke="#0000ff" stroke-linecap="butt" fill="none" stroke-linejoin="round" points="133.419,953.98 173.188,953.98 212.957,950.836 252.727,944.497 292.496,934.886 332.265,921.903 372.034,905.423 411.803,885.298 451.572,861.35 491.341,833.378 531.111,801.148 570.88,764.398 610.649,722.835 650.418,676.129 690.187,623.919 729.956,565.799 769.726,501.328 809.495,430.015 849.264,351.326 889.033,264.673 928.802,169.413"/>
   <polyline stroke-width="2" stroke="#0000ff" stroke-linecap="round" fill="none" stroke-linejoin="round" points="136.419,953.98 135.846,955.743 134.346,956.833 132.492,956.833 130.992,955.743 130.419,953.98 130.992,952.216 132.492,951.127 134.346,951.127 135.846,952.216 136.419,953.98"/>
   <polyline stroke-width="2" stroke="#0000ff" stroke-linecap="round" fill="none" stroke-linejoin="round" points="176.188,953.98 175.615,955.743 174.115,956.833 172.261,956.833 170.761,955.743 170.188,953.98 170.761,952.216 172.261,951.127 174.115,951.127 175.615,952.216 176.188,953.98"/>
   <polyline stroke-width="2" stroke="#0000ff" stroke-linecap="round" fill="none" stroke-linejoin="round" points="215.957,950.836 215.384,952.6 213.884,953.69 212.03,953.69 210.53,952.6 209.957,950.836 210.53,949.073 212.03,947.983 213.884,947.983 215.384,949.073 215.957,950.836"/>
   <polyline stroke-width="2" stroke="#0000ff" stroke-linecap="round" fill="none" stroke-linejoin="round" points="255.727,944.497 255.154,946.26 253.654,947.35 251.799,947.35 250.299,946.26 249.727,944.497 250.299,942.734 251.799,941.644 253.654,941.644 255.154,942.734 255.727,944.497"/>
   <polyline stroke-width="2" stroke="#0000ff" stroke-linecap="round" fill="none" stroke-linejoin="round" points="295.496,934.886 294.923,936.649 293.423,937.739 291.569,937.739 290.069,936.649 289.496,934.886 290.069,933.122 291.569,932.032 293.423,932.032 294.923,933.122 295.496,934.886"/>
   <polyline stroke-width="2" stroke="#0000ff" stroke-linecap="round" fill="none" stroke-linejoin="round" points="335.265,921.903 334.692,923.666 333.192,924.756 331.338,924.756 329.838,923.666 329.265,921.903 329.838,920.139 331.338,919.049 333.192,919.049 334.692,920.139 335.265,921.903"/>
   <polyline stroke-width="2" stroke="#0000ff" stroke-linecap="round" fill="none" stroke-linejoin="round" points="375.034,905.423 374.461,907.187 372.961,908.276 371.107,908.276 369.607,907.187 369.034,905.423 369.607,903.66 371.107,902.57 372.961,902.57 374.461,903.66 375.034,905.423"/>
   <polyline stroke-width="2" stroke="#0000ff" stroke-linecap="round" fill="none" stroke-linejoin="round" points="414.803,885.298 414.23,887.061 412.73,888.151 410.876,888.151 409.376,887.061 408.803,885.298 409.376,883.535 410.876,882.445 412.73,882.445 414.23,883.535 414.803,885.298"/>
   <polyline stroke-width="2" stroke="#0000ff" stroke-linecap="round" fill="none" stroke-linejoin="round" points="454.572,861.35 453.999,863.114 452.499,864.204 450.645,864.204 449.145,863.114 448.572,861.35 449.145,859.587 450.645,858.497 452.499,858.497 453.999,859.587 454.572,861.35"/>
   <polyline stroke-width="2" stroke="#0000ff" stroke-linecap="round" fill="none" stroke-linejoin="round" points="494.341,833.378 493.768,835.141 492.268,836.231 490.414,836.231 488.914,835.141 488.341,833.378 488.914,831.614 490.414,830.524 492.268,830.524 493.768,831.614 494.341,833.378"/>
   <polyline stroke-width="2" stroke="#0000ff" stroke-linecap="round" fill="none" stroke-linejoin="round" points="534.111,801.148 533.538,802.911 532.038,804.001 530.184,804.001 528.684,802.911 528.111,801.148 528.684,799.384 530.184,798.294 532.038,798.294 533.538,799.384 534.111,801.148"/>
   <polyline stroke-width="2" stroke="#0000ff" stroke-linecap="round" fill="none" stroke-linejoin="round" points="573.88,764.398 573.307,766.161 571.807,767.251 569.953,767.251 568.453,766.161 567.88,764.398 568.453,762.635 569.953,761.545 571.807,761.545 573.307,762.635 573.88,764.398"/>
   <polyline stroke-width="2" stroke="#0000ff" stroke-linecap="round" fill="none" stroke-linejoin="round" points="613.649,722.834 613.076,724.598 611.576,725.688 609.722,725.688 608.222,724.598 607.649,722.834 608.222,721.071 609.722,719.981 611.576,719.981 613.076,721.071 613.649,722.834"/>
   <polyline stroke-width="2" stroke="#0000ff" stroke-linecap="round" fill="none" stroke-linejoin="round" points="653.418,676.129 652.845,677.893 651.345,678.983 649.491,678.983 647.991,677.893 647.418,676.129 647.991,674.366 649.491,673.276 651.345,673.276 652.845,674.366 653.418,676.129"/>
   <polyline stroke-width="2" stroke="#0000ff" stroke-linecap="round" fill="none" stroke-linejoin="round" points="693.187,623.919 692.614,625.682 691.114,626.772 689.26,626.772 687.76,625.682 687.187,623.919 687.76,622.155 689.26,621.065 691.114,621.065 692.614,622.155 693.187,623.919"/>
   <polyline stroke-width="2" stroke="#0000ff" stroke-linecap="round" fill="none" stroke-linejoin="round" points="732.956,565.799 732.383,567.563 730.883,568.652 729.029,568.652 727.529,567.563 726.956,565.799 727.529,564.036 729.029,562.946 730.883,562.946 732.383,564.036 732.956,565.799"/>
   <polyline stroke-width="2" stroke="#0000ff" stroke-linecap="round" fill="none" stroke-linejoin="round" points="772.725,501.328 772.153,503.091 770.653,504.181 768.798,504.181 767.298,503.091 766.725,501.328 767.298,499.564 768.798,498.474 770.653,498.474 772.153,499.564 772.725,501.328"/>
   <polyline stroke-width="2" stroke="#0000ff" stroke-linecap="round" fill="none" stroke-linejoin="round" points="812.495,430.015 811.922,431.778 810.422,432.868 808.568,432.868 807.068,431.778 806.495,430.015 807.068,428.252 808.568,427.162 810.422,427.162 811.922,428.252 812.495,430.015"/>
   <polyline stroke-width="2" stroke="#0000ff" stroke-linecap="round" fill="none" stroke-linejoin="round" points="852.264,351.326 851.691,353.089 850.191,354.179 848.337,354.179 846.837,353.089 846.264,351.326 846.837,349.562 848.337,348.473 850.191,348.473 851.691,349.562 852.264,351.326"/>
   <polyline stroke-width="2" stroke="#0000ff" stroke-linecap="round" fill="none" stroke-linejoin="round" points="892.033,264.673 891.46,266.436 889.96,267.526 888.106,267.526 886.606,266.436 886.033,264.673 886.606,262.91 888.106,261.82 889.96,261.82 891.46,262.91 892.033,264.673"/>
   <polyline stroke-width="2" stroke="#0000ff" stroke-linecap="round" fill="none" stroke-linejoin="round" points="931.802,169.413 931.229,171.177 929.729,172.266 927.875,172.266 926.375,171.177 925.802,169.413 926.375,167.65 927.875,166.56 929.729,166.56 931.229,167.65 931.802,169.413"/>
   <polyline stroke-width="2" stroke="#ff0000" stroke-linecap="butt" fill="none" stroke-linejoin="round" points="133.419,1373.11 173.188,1341.68 212.957,1312.34 252.727,1284.68 292.496,1258.29 332.265,1232.78 372.034,1207.77 411.803,1182.89 451.572,1157.77 491.341,1132.03 531.111,1105.3 570.88,1077.21 610.649,1047.38 650.418,1015.4 690.187,980.88 729.956,943.385 769.726,902.477 809.495,857.691 849.264,808.538 889.033,754.496 928.802,695.016"/>
   <polyline stroke-width="2" stroke="#ff0000" stroke-linecap="round" fill="none" stroke-linejoin="round" points="136.419,1373.11 135.846,1374.88 134.346,1375.97 132.492,1375.97 130.992,1374.88 130.419,1373.11 130.992,1371.35 132.492,1370.26 134.346,1370.26 135.846,1371.35 136.419,1373.11"/>
   <polyline stroke-width="2" stroke="#ff0000" stroke-linecap="round" fill="none" stroke-linejoin="round" points="176.188,1341.68 175.615,1343.44 174.115,1344.53 172.261,1344.53 170.761,1343.44 170.188,1341.68 170.761,1339.92 172.261,1338.83 174.115,1338.83 175.615,1339.92 176.188,1341.68"/>
   <polyline stroke-width="2" stroke="#ff0000" stroke-linecap="round" fill="none" stroke-linejoin="round" points="215.957,1312.34 215.384,1314.1 213.884,1315.19 212.03,1315.19 210.53,1314.1 209.957,1312.34 210.53,1310.58 212.03,1309.49 213.884,1309.49 215.384,1310.58 215.957,1312.34"/>
   <polyline stroke-width="2" stroke="#ff0000" stroke-linecap="round" fill="none" stroke-linejoin="round" points="255.727,1284.68 255.154,1286.44 253.654,1287.53 251.799,1287.53 250.299,1286.44 249.727,1284.68 250.299,1282.91 251.799,1281.82 253.654,1281.82 255.154,1282.91 255.727,1284.68"/>
   <polyline stroke-width="2" stroke="#ff0000" stroke-linecap="round" fill="none" stroke-linejoin="round" points="295.496,1258.29 294.923,1260.05 293.423,1261.14 291.569,1261.14 290.069,1260.05 289.496,1258.29 290.069,1256.52 291.569,1255.43 293.423,1255.43 294.923,1256.52 295.496,1258.29"/>
   <polyline stroke-width="2" stroke="#ff0000" stroke-linecap="round" fill="none" stroke-linejoin="round" points="335.265,1232.78 334.692,1234.54 333.192,1235.63 331.338,1235.63 329.838,1234.54 329.265,1232.78 329.838,1231.02 331.338,1229.93 333.192,1229.93 334.692,1231.02 335.265,1232.78"/>
   <polyline stroke-width="2" stroke="#ff0000" stroke-linecap="round" fill="none" stroke-linejoin="round" points="375.034,1207.77 374.461,1209.54 372.961,1210.63 371.107,1210.63 369.607,1209.54 369.034,1207.77 369.607,1206.01 371.107,1204.92 372.961,1204.92 374.461,1206.01 375.034,1207.77"/>
   <polyline stroke-width="2" stroke="#ff0000" stroke-linecap="round" fill="none" stroke-linejoin="round" points="414.803,1182.89 414.23,1184.66 412.73,1185.75 410.876,1185.75 409.376,1184.66 408.803,1182.89 409.376,1181.13 410.876,1180.04 412.73,1180.04 414.23,1181.13 414.803,1182.89"/>
   <polyline stroke-width="2" stroke="#ff0000" stroke-linecap="round" fill="none" stroke-linejoin="round" points="454.572,1157.77 453.999,1159.53 452.499,1160.62 450.645,1160.62 449.145,1159.53 448.572,1157.77 449.145,1156 450.645,1154.91 452.499,1154.91 453.999,1156 454.572,1157.77"/>
   <polyline stroke-width="2" stroke="#ff0000" stroke-linecap="round" fill="none" stroke-linejoin="round" points="494.341,1132.03 493.768,1133.79 492.268,1134.88 490.414,1134.88 488.914,1133.79 488.341,1132.03 488.914,1130.27 490.414,1129.18 492.268,1129.18 493.768,1130.27 494.341,1132.03"/>
   <polyline stroke-width="2" stroke="#ff0000" stroke-linecap="round" fill="none" stroke-linejoin="round" points="534.111,1105.3 533.538,1107.07 532.038,1108.16 530.184,1108.16 528.684,1107.07 528.111,1105.3 528.684,1103.54 530.184,1102.45 532.038,1102.45 533.538,1103.54 534.111,1105.3"/>
   <polyline stroke-width="2" stroke="#ff0000" stroke-linecap="round" fill="none" stroke-linejoin="round" points="573.88,1077.21 573.307,1078.98 571.807,1080.07 569.953,1080.07 568.453,1078.98 567.88,1077.21 568.453,1075.45 569.953,1074.36 571.807,1074.36 573.307,1075.45 573.88,1077.21"/>
   <polyline stroke-width="2" stroke="#ff0000" stroke-linecap="round" fill="none" stroke-linejoin="round" points="613.649,1047.38 613.076,1049.14 611.576,1050.23 609.722,1050.23 608.222,1049.14 607.649,1047.38 608.222,1045.62 609.722,1044.53 611.576,1044.53 613.076,1045.62 613.649,1047.38"/>
   <polyline stroke-width="2" stroke="#ff0000" stroke-linecap="round" fill="none" stroke-linejoin="round" points="653.418,1015.4 652.845,1017.17 651.345,1018.26 649.491,1018.26 647.991,1017.17 647.418,1015.4 647.991,1013.64 649.491,1012.55 651.345,1012.55 652.845,1013.64 653.418,1015.4"/>
   <polyline stroke-width="2" stroke="#ff0000" stroke-linecap="round" fill="none" stroke-linejoin="round" points="693.187,980.88 692.614,982.643 691.114,983.733 689.26,983.733 687.76,982.643 687.187,980.88 687.76,979.116 689.26,978.026 691.114,978.026 692.614,979.116 693.187,980.88"/>
   <polyline stroke-width="2" stroke="#ff0000" stroke-linecap="round" fill="none" stroke-linejoin="round" points="732.956,943.385 732.383,945.148 730.883,946.238 729.029,946.238 727.529,945.148 726.956,943.385 727.529,941.622 729.029,940.532 730.883,940.532 732.383,941.622 732.956,943.385"/>
   <polyline stroke-width="2" stroke="#ff0000" stroke-linecap="round" fill="none" stroke-linejoin="round" points="772.725,902.477 772.153,904.24 770.653,905.33 768.798,905.33 767.298,904.24 766.725,902.477 767.298,900.714 768.798,899.624 770.653,899.624 772.153,900.714 772.725,902.477"/>
   <polyline stroke-width="2" stroke="#ff0000" stroke-linecap="round" fill="none" stroke-linejoin="round" points="812.495,857.691 811.922,859.455 810.422,860.544 808.568,860.544 807.068,859.455 806.495,857.691 807.068,855.928 808.568,854.838 810.422,854.838 811.922,855.928 812.495,857.691"/>
   <polyline stroke-width="2" stroke="#ff0000" stroke-linecap="round" fill="none" stroke-linejoin="round" points="852.264,808.538 851.691,810.301 850.191,811.391 848.337,811.391 846.837,810.301 846.264,808.538 846.837,806.774 848.337,805.684 850.191,805.684 851.691,806.774 852.264,808.538"/>
   <polyline stroke-width="2" stroke="#ff0000" stroke-linecap="round" fill="none" stroke-linejoin="round" points="892.033,754.496 891.46,756.26 889.96,757.35 888.106,757.35 886.606,756.26 886.033,754.496 886.606,752.733 888.106,751.643 889.96,751.643 891.46,752.733 892.033,754.496"/>
   <polyline stroke-width="2" stroke="#ff0000" stroke-linecap="round" fill="none" stroke-linejoin="round" points="931.802,695.016 931.229,696.779 929.729,697.869 927.875,697.869 926.375,696.779 925.802,695.016 926.375,693.253 927.875,692.163 929.729,692.163 931.229,693.253 931.802,695.016"/>
  </g>
  <clipPath id="cp0010261542">
   <polygon points="0,1542 1026,1542 1026,0 0,0"/>
  </clipPath>
  <g clip-path="url(#cp0010261542)">
   <polygon fill="#ffffff" points="879.785,155.721 920.799,155.721 920.799,123.715 879.785,123.715" shape-rendering="crispEdges"/>
   <polyline stroke-width="0.5" stroke-dasharray="16,0" stroke="#262626" stroke-linecap="square" fill="none" stroke-linejoin="miter" points="879.785,155.721 920.799,155.721"/>
   <polyline stroke-width="0.5" stroke-dasharray="16,0" stroke="#262626" stroke-linecap="square" fill="none" stroke-linejoin="miter" points="879.785,123.715 920.799,123.715"/>
   <polyline stroke-width="0.5" stroke-dasharray="16,0" stroke="#262626" stroke-linecap="square" fill="none" stroke-linejoin="miter" points="879.785,155.721 879.785,123.715"/>
   <polyline stroke-width="0.5" stroke-dasharray="16,0" stroke="#262626" stroke-linecap="square" fill="none" stroke-linejoin="miter" points="920.799,155.721 920.799,123.715"/>
   <polyline stroke-width="2" stroke="#0000ff" stroke-linecap="butt" fill="none" stroke-linejoin="round" points="883.786,132.717 903.795,132.717"/>
   <polyline stroke-width="0.5" stroke="#0000ff" stroke-linecap="round" fill="none" stroke-linejoin="round" points="896.791,132.717 896.218,134.48 894.718,135.57 892.864,135.57 891.364,134.48 890.791,132.717 891.364,130.954 892.864,129.864 894.718,129.864 896.218,130.954 896.791,132.717"/>
   <g font-style="normal" font-family="FreeSans" font-weight="normal" xml:space="preserve" transform="translate(907.797,137.717) rotate(-0,-0,-5)" font-size="9">
    <text x="0 4 " y="-2" fill="rgb(0,0,0)">y1</text>
   </g>
   <polyline stroke-width="2" stroke="#ff0000" stroke-linecap="butt" fill="none" stroke-linejoin="round" points="883.786,146.719 903.795,146.719"/>
   <polyline stroke-width="0.5" stroke="#ff0000" stroke-linecap="round" fill="none" stroke-linejoin="round" points="896.791,146.719 896.218,148.482 894.718,149.572 892.864,149.572 891.364,148.482 890.791,146.719 891.364,144.956 892.864,143.866 894.718,143.866 896.218,144.956 896.791,146.719"/>
   <g font-style="normal" font-family="FreeSans" font-weight="normal" xml:space="preserve" transform="translate(907.797,151.719) rotate(-0,-0,-5)" font-size="9">
    <text x="0 4 " y="-2" fill="rgb(0,0,0)">y2</text>
   </g>
  </g>
 </g>
</svg>
