<?xml version='1.0' encoding='UTF-8' standalone='no'?>
<svg height="1542pt" viewBox="0 0 1026 1542" xmlns:xlink="http://www.w3.org/1999/xlink" xmlns="http://www.w3.org/2000/svg" width="1026pt">
 <title>Figure 1</title>
 <desc>
Creator: GL2PS 1.4.2, (C) 1999-2020 C. Geuzaine
For: Octave
CreationDate: Tue Jan 17 05:45:03 2023
</desc>
 <defs/>
 <polygon points="0,0 1026,0 1026,1542 0,1542" fill="#ffffff"/>
 <g>
  <polygon points="0,1542 1026,1542 1026,0 0,0" shape-rendering="crispEdges" fill="#ffffff"/>
  <clipPath id="cp0010261542">
   <polygon points="0,1542 1026,1542 1026,0 0,0"/>
  </clipPath>
  <g clip-path="url(#cp0010261542)">
   <polygon points="133.419,1373.11 928.802,1373.11 928.802,115.712 133.419,115.712" shape-rendering="crispEdges" fill="#ffffff"/>
   <polyline stroke-linejoin="miter" stroke-linecap="butt" points="133.419,1373.11 133.419,115.712" stroke="#262626" stroke-opacity="0.15" stroke-dasharray="16,0" stroke-width="0.5" fill="none"/>
   <polyline stroke-linejoin="miter" stroke-linecap="butt" points="265.983,1373.11 265.983,115.712" stroke="#262626" stroke-opacity="0.15" stroke-dasharray="16,0" stroke-width="0.5" fill="none"/>
   <polyline stroke-linejoin="miter" stroke-linecap="butt" points="398.547,1373.11 398.547,115.712" stroke="#262626" stroke-opacity="0.15" stroke-dasharray="16,0" stroke-width="0.5" fill="none"/>
   <polyline stroke-linejoin="miter" stroke-linecap="butt" points="531.111,1373.11 531.111,115.712" stroke="#262626" stroke-opacity="0.15" stroke-dasharray="16,0" stroke-width="0.5" fill="none"/>
   <polyline stroke-linejoin="miter" stroke-linecap="butt" points="663.674,1373.11 663.674,115.712" stroke="#262626" stroke-opacity="0.15" stroke-dasharray="16,0" stroke-width="0.5" fill="none"/>
   <polyline stroke-linejoin="miter" stroke-linecap="butt" points="796.238,1373.11 796.238,115.712" stroke="#262626" stroke-opacity="0.15" stroke-dasharray="16,0" stroke-width="0.5" fill="none"/>
   <polyline stroke-linejoin="miter" stroke-linecap="butt" points="928.802,1373.11 928.802,115.712" stroke="#262626" stroke-opacity="0.15" stroke-dasharray="16,0" stroke-width="0.5" fill="none"/>
   <polyline stroke-linejoin="miter" stroke-linecap="butt" points="133.419,1373.11 133.419,1360.54" stroke="#262626" stroke-width="0.5" fill="none"/>
   <polyline stroke-linejoin="miter" stroke-linecap="butt" points="133.419,115.712 133.419,128.29" stroke="#262626" stroke-width="0.5" fill="none"/>
   <polyline stroke-linejoin="miter" stroke-linecap="butt" points="265.983,1373.11 265.983,1360.54" stroke="#262626" stroke-width="0.5" fill="none"/>
   <polyline stroke-linejoin="miter" stroke-linecap="butt" points="265.983,115.712 265.983,128.29" stroke="#262626" stroke-width="0.5" fill="none"/>
   <polyline stroke-linejoin="miter" stroke-linecap="butt" points="398.547,1373.11 398.547,1360.54" stroke="#262626" stroke-width="0.5" fill="none"/>
   <polyline stroke-linejoin="miter" stroke-linecap="butt" points="398.547,115.712 398.547,128.29" stroke="#262626" stroke-width="0.5" fill="none"/>
   <polyline stroke-linejoin="miter" stroke-linecap="butt" points="531.111,1373.11 531.111,1360.54" stroke="#262626" stroke-width="0.5" fill="none"/>
   <polyline stroke-linejoin="miter" stroke-linecap="butt" points="531.111,115.712 531.111,128.29" stroke="#262626" stroke-width="0.5" fill="none"/>
   <polyline stroke-linejoin="miter" stroke-linecap="butt" points="663.674,1373.11 663.674,1360.54" stroke="#262626" stroke-width="0.5" fill="none"/>
   <polyline stroke-linejoin="miter" stroke-linecap="butt" points="663.674,115.712 663.674,128.29" stroke="#262626" stroke-width="0.5" fill="none"/>
   <polyline stroke-linejoin="miter" stroke-linecap="butt" points="796.238,1373.11 796.238,1360.54" stroke="#262626" stroke-width="0.5" fill="none"/>
   <polyline stroke-linejoin="miter" stroke-linecap="butt" points="796.238,115.712 796.238,128.29" stroke="#262626" stroke-width="0.5" fill="none"/>
   <polyline stroke-linejoin="miter" stroke-linecap="butt" points="928.802,1373.11 928.802,1360.54" stroke="#262626" stroke-width="0.5" fill="none"/>
   <polyline stroke-linejoin="miter" stroke-linecap="butt" points="928.802,115.712 928.802,128.29" stroke="#262626" stroke-width="0.5" fill="none"/>
   <g font-weight="normal" transform="translate(130.419,1388.62) rotate(-0,3,-8)" xml:space="preserve" font-family="FreeSans" font-size="10" font-style="normal">
    <text x="0 " y="-0" fill="rgb(38,38,38)">0</text>
   </g>
   <g font-weight="normal" transform="translate(262.983,1388.62) rotate(-0,3,-8)" xml:space="preserve" font-family="FreeSans" font-size="10" font-style="normal">
    <text x="0 " y="-0" fill="rgb(38,38,38)">1</text>
   </g>
   <g font-weight="normal" transform="translate(395.547,1388.62) rotate(-0,3,-8)" xml:space="preserve" font-family="FreeSans" font-size="10" font-style="normal">
    <text x="0 " y="-0" fill="rgb(38,38,38)">2</text>
   </g>
   <g font-weight="normal" transform="translate(528.111,1388.62) rotate(-0,3,-8)" xml:space="preserve" font-family="FreeSans" font-size="10" font-style="normal">
    <text x="0 " y="-0" fill="rgb(38,38,38)">3</text>
   </g>
   <g font-weight="normal" transform="translate(660.674,1388.62) rotate(-0,3,-8)" xml:space="preserve" font-family="FreeSans" font-size="10" font-style="normal">
    <text x="0 " y="-0" fill="rgb(38,38,38)">4</text>
   </g>
   <g font-weight="normal" transform="translate(793.238,1388.62) rotate(-0,3,-8)" xml:space="preserve" font-family="FreeSans" font-size="10" font-style="normal">
    <text x="0 " y="-0" fill="rgb(38,38,38)">5</text>
   </g>
   <g font-weight="normal" transform="translate(925.802,1388.62) rotate(-0,3,-8)" xml:space="preserve" font-family="FreeSans" font-size="10" font-style="normal">
    <text x="0 " y="-0" fill="rgb(38,38,38)">6</text>
   </g>
   <polyline stroke-linejoin="miter" stroke-linecap="butt" points="133.419,1373.11 928.802,1373.11" stroke="#262626" stroke-opacity="0.15" stroke-dasharray="16,0" stroke-width="0.5" fill="none"/>
   <polyline stroke-linejoin="miter" stroke-linecap="butt" points="133.419,1121.63 928.802,1121.63" stroke="#262626" stroke-opacity="0.15" stroke-dasharray="16,0" stroke-width="0.5" fill="none"/>
   <polyline stroke-linejoin="miter" stroke-linecap="butt" points="133.419,870.153 928.802,870.153" stroke="#262626" stroke-opacity="0.15" stroke-dasharray="16,0" stroke-width="0.5" fill="none"/>
   <polyline stroke-linejoin="miter" stroke-linecap="butt" points="133.419,618.673 928.802,618.673" stroke="#262626" stroke-opacity="0.15" stroke-dasharray="16,0" stroke-width="0.5" fill="none"/>
   <polyline stroke-linejoin="miter" stroke-linecap="butt" points="133.419,367.192 928.802,367.192" stroke="#262626" stroke-opacity="0.15" stroke-dasharray="16,0" stroke-width="0.5" fill="none"/>
   <polyline stroke-linejoin="miter" stroke-linecap="butt" points="133.419,115.712 928.802,115.712" stroke="#262626" stroke-opacity="0.15" stroke-dasharray="16,0" stroke-width="0.5" fill="none"/>
   <polyline stroke-linejoin="miter" stroke-linecap="butt" points="133.419,1373.11 145.999,1373.11" stroke="#262626" stroke-width="0.5" fill="none"/>
   <polyline stroke-linejoin="miter" stroke-linecap="butt" points="928.802,1373.11 916.222,1373.11" stroke="#262626" stroke-width="0.5" fill="none"/>
   <polyline stroke-linejoin="miter" stroke-linecap="butt" points="133.419,1121.63 145.999,1121.63" stroke="#262626" stroke-width="0.5" fill="none"/>
   <polyline stroke-linejoin="miter" stroke-linecap="butt" points="928.802,1121.63 916.222,1121.63" stroke="#262626" stroke-width="0.5" fill="none"/>
   <polyline stroke-linejoin="miter" stroke-linecap="butt" points="133.419,870.153 145.999,870.153" stroke="#262626" stroke-width="0.5" fill="none"/>
   <polyline stroke-linejoin="miter" stroke-linecap="butt" points="928.802,870.153 916.222,870.153" stroke="#262626" stroke-width="0.5" fill="none"/>
   <polyline stroke-linejoin="miter" stroke-linecap="butt" points="133.419,618.673 145.999,618.673" stroke="#262626" stroke-width="0.5" fill="none"/>
   <polyline stroke-linejoin="miter" stroke-linecap="butt" points="928.802,618.673 916.222,618.673" stroke="#262626" stroke-width="0.5" fill="none"/>
   <polyline stroke-linejoin="miter" stroke-linecap="butt" points="133.419,367.192 145.999,367.192" stroke="#262626" stroke-width="0.5" fill="none"/>
   <polyline stroke-linejoin="miter" stroke-linecap="butt" points="928.802,367.192 916.222,367.192" stroke="#262626" stroke-width="0.5" fill="none"/>
   <polyline stroke-linejoin="miter" stroke-linecap="butt" points="133.419,115.712 145.999,115.712" stroke="#262626" stroke-width="0.5" fill="none"/>
   <polyline stroke-linejoin="miter" stroke-linecap="butt" points="928.802,115.712 916.222,115.712" stroke="#262626" stroke-width="0.5" fill="none"/>
   <g font-weight="normal" transform="translate(119.417,1377.11) rotate(-0,9,-4)" xml:space="preserve" font-family="FreeSans" font-size="10" font-style="normal">
    <text x="0 3 " y="-0" fill="rgb(38,38,38)">-1</text>
   </g>
   <g font-weight="normal" transform="translate(122.417,1125.63) rotate(-0,6,-4)" xml:space="preserve" font-family="FreeSans" font-size="10" font-style="normal">
    <text x="0 " y="-0" fill="rgb(38,38,38)">0</text>
   </g>
   <g font-weight="normal" transform="translate(122.417,874.153) rotate(-0,6,-4)" xml:space="preserve" font-family="FreeSans" font-size="10" font-style="normal">
    <text x="0 " y="-0" fill="rgb(38,38,38)">1</text>
   </g>
   <g font-weight="normal" transform="translate(122.417,622.673) rotate(-0,6,-4)" xml:space="preserve" font-family="FreeSans" font-size="10" font-style="normal">
    <text x="0 " y="-0" fill="rgb(38,38,38)">2</text>
   </g>
   <g font-weight="normal" transform="translate(122.417,371.192) rotate(-0,6,-4)" xml:space="preserve" font-family="FreeSans" font-size="10" font-style="normal">
    <text x="0 " y="-0" fill="rgb(38,38,38)">3</text>
   </g>
   <g font-weight="normal" transform="translate(122.417,119.712) rotate(-0,6,-4)" xml:space="preserve" font-family="FreeSans" font-size="10" font-style="normal">
    <text x="0 " y="-0" fill="rgb(38,38,38)">4</text>
   </g>
   <polyline stroke-linejoin="miter" stroke-linecap="square" points="133.419,1373.11 928.802,1373.11" stroke="#262626" stroke-dasharray="16,0" stroke-width="0.5" fill="none"/>
   <polyline stroke-linejoin="miter" stroke-linecap="square" points="133.419,115.712 928.802,115.712" stroke="#262626" stroke-dasharray="16,0" stroke-width="0.5" fill="none"/>
   <polyline stroke-linejoin="miter" stroke-linecap="square" points="133.419,1373.11 133.419,115.712" stroke="#262626" stroke-dasharray="16,0" stroke-width="0.5" fill="none"/>
   <polyline stroke-linejoin="miter" stroke-linecap="square" points="928.802,1373.11 928.802,115.712" stroke="#262626" stroke-dasharray="16,0" stroke-width="0.5" fill="none"/>
   <g font-weight="normal" transform="translate(505.611,1405.62) rotate(-0,25.5,-12)" xml:space="preserve" font-family="FreeSans" font-size="11" font-style="normal">
    <text x="0 3 6 10 19 21 27 33 36 42 47 " y="-3" fill="rgb(38,38,38)">t (minutes)</text>
   </g>
   <g font-weight="normal" transform="translate(86.4167,744.413) rotate(-90,28,0)" xml:space="preserve" font-family="FreeSans" font-size="11" font-style="normal">
    <text x="0 3 6 10 16 25 31 37 41 47 52 " y="-3" fill="rgb(38,38,38)">I (amperes)</text>
   </g>
   <g font-weight="bold" transform="translate(455.111,105.712) rotate(-0,76,0)" xml:space="preserve" font-family="FreeSans" font-size="11" font-style="normal">
    <text x="0 7 14 17 20 24 31 35 38 41 44 50 53 59 62 69 76 79 85 89 92 101 104 108 115 118 128 131 137 140 146 " y="-1" fill="rgb(0,0,0)">Sol for I via Euler with m = 60</text>
   </g>
   <polyline stroke-linejoin="round" stroke-linecap="butt" points="133.419,1121.63 146.676,819.857 159.932,590.507 173.188,429.72 186.445,327.532 199.701,271.478 212.957,249.014 226.214,248.951 239.47,262.157 252.727,281.739 265.983,302.902 279.239,322.631 292.496,339.302 305.752,352.294 319.008,361.655 332.265,367.816 345.521,371.394 358.778,373.041 372.034,373.361 385.29,372.86 398.547,371.928 411.803,370.846 425.06,369.797 438.316,368.884 451.572,368.153 464.829,367.614 478.085,367.247 491.341,367.024 504.598,366.91 517.854,366.875 531.111,366.889 544.367,366.932 557.623,366.986 570.88,367.042 584.136,367.091 597.393,367.132 610.649,367.163 623.905,367.184 637.162,367.198 650.418,367.205 663.674,367.208 676.931,367.208 690.187,367.206 703.444,367.204 716.7,367.201 729.956,367.198 743.213,367.196 756.469,367.194 769.726,367.193 782.982,367.192 796.238,367.192 809.495,367.191 822.751,367.191 836.007,367.191 849.264,367.192 862.52,367.192 875.777,367.192 889.033,367.192 902.289,367.192 915.546,367.192 928.802,367.192" stroke="#0000ff" stroke-width="2" fill="none"/>
   <polyline stroke-linejoin="round" stroke-linecap="round" points="136.419,1121.63 135.846,1123.4 134.346,1124.49 132.492,1124.49 130.992,1123.4 130.419,1121.63 130.992,1119.87 132.492,1118.78 134.346,1118.78 135.846,1119.87 136.419,1121.63" stroke="#0000ff" stroke-width="2" fill="none"/>
   <polyline stroke-linejoin="round" stroke-linecap="round" points="149.675,819.857 149.103,821.62 147.603,822.71 145.748,822.71 144.248,821.62 143.675,819.857 144.248,818.094 145.748,817.004 147.603,817.004 149.103,818.094 149.675,819.857" stroke="#0000ff" stroke-width="2" fill="none"/>
   <polyline stroke-linejoin="round" stroke-linecap="round" points="162.932,590.507 162.359,592.27 160.859,593.36 159.005,593.36 157.505,592.27 156.932,590.507 157.505,588.743 159.005,587.654 160.859,587.654 162.359,588.743 162.932,590.507" stroke="#0000ff" stroke-width="2" fill="none"/>
   <polyline stroke-linejoin="round" stroke-linecap="round" points="176.188,429.72 175.615,431.484 174.115,432.573 172.261,432.573 170.761,431.484 170.188,429.72 170.761,427.957 172.261,426.867 174.115,426.867 175.615,427.957 176.188,429.72" stroke="#0000ff" stroke-width="2" fill="none"/>
   <polyline stroke-linejoin="round" stroke-linecap="round" points="189.445,327.532 188.872,329.295 187.372,330.385 185.518,330.385 184.018,329.295 183.445,327.532 184.018,325.768 185.518,324.678 187.372,324.678 188.872,325.768 189.445,327.532" stroke="#0000ff" stroke-width="2" fill="none"/>
   <polyline stroke-linejoin="round" stroke-linecap="round" points="202.701,271.478 202.128,273.241 200.628,274.331 198.774,274.331 197.274,273.241 196.701,271.478 197.274,269.714 198.774,268.625 200.628,268.625 202.128,269.714 202.701,271.478" stroke="#0000ff" stroke-width="2" fill="none"/>
   <polyline stroke-linejoin="round" stroke-linecap="round" points="215.957,249.014 215.384,250.777 213.884,251.867 212.03,251.867 210.53,250.777 209.957,249.014 210.53,247.251 212.03,246.161 213.884,246.161 215.384,247.251 215.957,249.014" stroke="#0000ff" stroke-width="2" fill="none"/>
   <polyline stroke-linejoin="round" stroke-linecap="round" points="229.214,248.951 228.641,250.715 227.141,251.805 225.287,251.805 223.787,250.715 223.214,248.951 223.787,247.188 225.287,246.098 227.141,246.098 228.641,247.188 229.214,248.951" stroke="#0000ff" stroke-width="2" fill="none"/>
   <polyline stroke-linejoin="round" stroke-linecap="round" points="242.47,262.157 241.897,263.921 240.397,265.01 238.543,265.01 237.043,263.921 236.47,262.157 237.043,260.394 238.543,259.304 240.397,259.304 241.897,260.394 242.47,262.157" stroke="#0000ff" stroke-width="2" fill="none"/>
   <polyline stroke-linejoin="round" stroke-linecap="round" points="255.727,281.739 255.154,283.502 253.654,284.592 251.799,284.592 250.299,283.502 249.727,281.739 250.299,279.976 251.799,278.886 253.654,278.886 255.154,279.976 255.727,281.739" stroke="#0000ff" stroke-width="2" fill="none"/>
   <polyline stroke-linejoin="round" stroke-linecap="round" points="268.983,302.902 268.41,304.666 266.91,305.755 265.056,305.755 263.556,304.666 262.983,302.902 263.556,301.139 265.056,300.049 266.91,300.049 268.41,301.139 268.983,302.902" stroke="#0000ff" stroke-width="2" fill="none"/>
   <polyline stroke-linejoin="round" stroke-linecap="round" points="282.239,322.631 281.666,324.395 280.166,325.484 278.312,325.484 276.812,324.395 276.239,322.631 276.812,320.868 278.312,319.778 280.166,319.778 281.666,320.868 282.239,322.631" stroke="#0000ff" stroke-width="2" fill="none"/>
   <polyline stroke-linejoin="round" stroke-linecap="round" points="295.496,339.302 294.923,341.065 293.423,342.155 291.569,342.155 290.069,341.065 289.496,339.302 290.069,337.538 291.569,336.449 293.423,336.449 294.923,337.538 295.496,339.302" stroke="#0000ff" stroke-width="2" fill="none"/>
   <polyline stroke-linejoin="round" stroke-linecap="round" points="308.752,352.294 308.179,354.058 306.679,355.148 304.825,355.148 303.325,354.058 302.752,352.294 303.325,350.531 304.825,349.441 306.679,349.441 308.179,350.531 308.752,352.294" stroke="#0000ff" stroke-width="2" fill="none"/>
   <polyline stroke-linejoin="round" stroke-linecap="round" points="322.008,361.655 321.435,363.418 319.935,364.508 318.081,364.508 316.581,363.418 316.008,361.655 316.581,359.891 318.081,358.801 319.935,358.801 321.435,359.891 322.008,361.655" stroke="#0000ff" stroke-width="2" fill="none"/>
   <polyline stroke-linejoin="round" stroke-linecap="round" points="335.265,367.816 334.692,369.579 333.192,370.669 331.338,370.669 329.838,369.579 329.265,367.816 329.838,366.053 331.338,364.963 333.192,364.963 334.692,366.053 335.265,367.816" stroke="#0000ff" stroke-width="2" fill="none"/>
   <polyline stroke-linejoin="round" stroke-linecap="round" points="348.521,371.394 347.948,373.157 346.448,374.247 344.594,374.247 343.094,373.157 342.521,371.394 343.094,369.63 344.594,368.541 346.448,368.541 347.948,369.63 348.521,371.394" stroke="#0000ff" stroke-width="2" fill="none"/>
   <polyline stroke-linejoin="round" stroke-linecap="round" points="361.778,373.041 361.205,374.805 359.705,375.894 357.851,375.894 356.351,374.805 355.778,373.041 356.351,371.278 357.851,370.188 359.705,370.188 361.205,371.278 361.778,373.041" stroke="#0000ff" stroke-width="2" fill="none"/>
   <polyline stroke-linejoin="round" stroke-linecap="round" points="375.034,373.361 374.461,375.125 372.961,376.215 371.107,376.215 369.607,375.125 369.034,373.361 369.607,371.598 371.107,370.508 372.961,370.508 374.461,371.598 375.034,373.361" stroke="#0000ff" stroke-width="2" fill="none"/>
   <polyline stroke-linejoin="round" stroke-linecap="round" points="388.29,372.86 387.717,374.623 386.217,375.713 384.363,375.713 382.863,374.623 382.29,372.86 382.863,371.097 384.363,370.007 386.217,370.007 387.717,371.097 388.29,372.86" stroke="#0000ff" stroke-width="2" fill="none"/>
   <polyline stroke-linejoin="round" stroke-linecap="round" points="401.547,371.928 400.974,373.692 399.474,374.781 397.62,374.781 396.12,373.692 395.547,371.928 396.12,370.165 397.62,369.075 399.474,369.075 400.974,370.165 401.547,371.928" stroke="#0000ff" stroke-width="2" fill="none"/>
   <polyline stroke-linejoin="round" stroke-linecap="round" points="414.803,370.846 414.23,372.61 412.73,373.7 410.876,373.7 409.376,372.61 408.803,370.846 409.376,369.083 410.876,367.993 412.73,367.993 414.23,369.083 414.803,370.846" stroke="#0000ff" stroke-width="2" fill="none"/>
   <polyline stroke-linejoin="round" stroke-linecap="round" points="428.06,369.797 427.487,371.56 425.987,372.65 424.132,372.65 422.632,371.56 422.06,369.797 422.632,368.033 424.132,366.943 425.987,366.943 427.487,368.033 428.06,369.797" stroke="#0000ff" stroke-width="2" fill="none"/>
   <polyline stroke-linejoin="round" stroke-linecap="round" points="441.316,368.883 440.743,370.647 439.243,371.737 437.389,371.737 435.889,370.647 435.316,368.883 435.889,367.12 437.389,366.03 439.243,366.03 440.743,367.12 441.316,368.883" stroke="#0000ff" stroke-width="2" fill="none"/>
   <polyline stroke-linejoin="round" stroke-linecap="round" points="454.572,368.153 453.999,369.917 452.499,371.007 450.645,371.007 449.145,369.917 448.572,368.153 449.145,366.39 450.645,365.3 452.499,365.3 453.999,366.39 454.572,368.153" stroke="#0000ff" stroke-width="2" fill="none"/>
   <polyline stroke-linejoin="round" stroke-linecap="round" points="467.829,367.614 467.256,369.377 465.756,370.467 463.902,370.467 462.402,369.377 461.829,367.614 462.402,365.85 463.902,364.76 465.756,364.76 467.256,365.85 467.829,367.614" stroke="#0000ff" stroke-width="2" fill="none"/>
   <polyline stroke-linejoin="round" stroke-linecap="round" points="481.085,367.247 480.512,369.01 479.012,370.1 477.158,370.1 475.658,369.01 475.085,367.247 475.658,365.484 477.158,364.394 479.012,364.394 480.512,365.484 481.085,367.247" stroke="#0000ff" stroke-width="2" fill="none"/>
   <polyline stroke-linejoin="round" stroke-linecap="round" points="494.341,367.024 493.768,368.787 492.268,369.877 490.414,369.877 488.914,368.787 488.341,367.024 488.914,365.26 490.414,364.17 492.268,364.17 493.768,365.26 494.341,367.024" stroke="#0000ff" stroke-width="2" fill="none"/>
   <polyline stroke-linejoin="round" stroke-linecap="round" points="507.598,366.91 507.025,368.674 505.525,369.764 503.671,369.764 502.171,368.674 501.598,366.91 502.171,365.147 503.671,364.057 505.525,364.057 507.025,365.147 507.598,366.91" stroke="#0000ff" stroke-width="2" fill="none"/>
   <polyline stroke-linejoin="round" stroke-linecap="round" points="520.854,366.875 520.281,368.638 518.781,369.728 516.927,369.728 515.427,368.638 514.854,366.875 515.427,365.111 516.927,364.022 518.781,364.022 520.281,365.111 520.854,366.875" stroke="#0000ff" stroke-width="2" fill="none"/>
   <polyline stroke-linejoin="round" stroke-linecap="round" points="534.111,366.889 533.538,368.653 532.038,369.743 530.184,369.743 528.684,368.653 528.111,366.889 528.684,365.126 530.184,364.036 532.038,364.036 533.538,365.126 534.111,366.889" stroke="#0000ff" stroke-width="2" fill="none"/>
   <polyline stroke-linejoin="round" stroke-linecap="round" points="547.367,366.932 546.794,368.695 545.294,369.785 543.44,369.785 541.94,368.695 541.367,366.932 541.94,365.169 543.44,364.079 545.294,364.079 546.794,365.169 547.367,366.932" stroke="#0000ff" stroke-width="2" fill="none"/>
   <polyline stroke-linejoin="round" stroke-linecap="round" points="560.623,366.986 560.05,368.75 558.55,369.839 556.696,369.839 555.196,368.75 554.623,366.986 555.196,365.223 556.696,364.133 558.55,364.133 560.05,365.223 560.623,366.986" stroke="#0000ff" stroke-width="2" fill="none"/>
   <polyline stroke-linejoin="round" stroke-linecap="round" points="573.88,367.042 573.307,368.805 571.807,369.895 569.953,369.895 568.453,368.805 567.88,367.042 568.453,365.278 569.953,364.188 571.807,364.188 573.307,365.278 573.88,367.042" stroke="#0000ff" stroke-width="2" fill="none"/>
   <polyline stroke-linejoin="round" stroke-linecap="round" points="587.136,367.091 586.563,368.854 585.063,369.944 583.209,369.944 581.709,368.854 581.136,367.091 581.709,365.328 583.209,364.238 585.063,364.238 586.563,365.328 587.136,367.091" stroke="#0000ff" stroke-width="2" fill="none"/>
   <polyline stroke-linejoin="round" stroke-linecap="round" points="600.393,367.132 599.82,368.895 598.32,369.985 596.465,369.985 594.966,368.895 594.393,367.132 594.966,365.368 596.465,364.279 598.32,364.279 599.82,365.368 600.393,367.132" stroke="#0000ff" stroke-width="2" fill="none"/>
   <polyline stroke-linejoin="round" stroke-linecap="round" points="613.649,367.163 613.076,368.926 611.576,370.016 609.722,370.016 608.222,368.926 607.649,367.163 608.222,365.399 609.722,364.309 611.576,364.309 613.076,365.399 613.649,367.163" stroke="#0000ff" stroke-width="2" fill="none"/>
   <polyline stroke-linejoin="round" stroke-linecap="round" points="626.905,367.184 626.332,368.948 624.832,370.037 622.978,370.037 621.478,368.948 620.905,367.184 621.478,365.421 622.978,364.331 624.832,364.331 626.332,365.421 626.905,367.184" stroke="#0000ff" stroke-width="2" fill="none"/>
   <polyline stroke-linejoin="round" stroke-linecap="round" points="640.162,367.198 639.589,368.961 638.089,370.051 636.235,370.051 634.735,368.961 634.162,367.198 634.735,365.435 636.235,364.345 638.089,364.345 639.589,365.435 640.162,367.198" stroke="#0000ff" stroke-width="2" fill="none"/>
   <polyline stroke-linejoin="round" stroke-linecap="round" points="653.418,367.205 652.845,368.969 651.345,370.058 649.491,370.058 647.991,368.969 647.418,367.205 647.991,365.442 649.491,364.352 651.345,364.352 652.845,365.442 653.418,367.205" stroke="#0000ff" stroke-width="2" fill="none"/>
   <polyline stroke-linejoin="round" stroke-linecap="round" points="666.674,367.208 666.102,368.972 664.602,370.061 662.747,370.061 661.247,368.972 660.674,367.208 661.247,365.445 662.747,364.355 664.602,364.355 666.102,365.445 666.674,367.208" stroke="#0000ff" stroke-width="2" fill="none"/>
   <polyline stroke-linejoin="round" stroke-linecap="round" points="679.931,367.208 679.358,368.972 677.858,370.061 676.004,370.061 674.504,368.972 673.931,367.208 674.504,365.445 676.004,364.355 677.858,364.355 679.358,365.445 679.931,367.208" stroke="#0000ff" stroke-width="2" fill="none"/>
   <polyline stroke-linejoin="round" stroke-linecap="round" points="693.187,367.206 692.614,368.97 691.114,370.06 689.26,370.06 687.76,368.97 687.187,367.206 687.76,365.443 689.26,364.353 691.114,364.353 692.614,365.443 693.187,367.206" stroke="#0000ff" stroke-width="2" fill="none"/>
   <polyline stroke-linejoin="round" stroke-linecap="round" points="706.444,367.204 705.871,368.967 704.371,370.057 702.517,370.057 701.017,368.967 700.444,367.204 701.017,365.44 702.517,364.351 704.371,364.351 705.871,365.44 706.444,367.204" stroke="#0000ff" stroke-width="2" fill="none"/>
   <polyline stroke-linejoin="round" stroke-linecap="round" points="719.7,367.201 719.127,368.964 717.627,370.054 715.773,370.054 714.273,368.964 713.7,367.201 714.273,365.438 715.773,364.348 717.627,364.348 719.127,365.438 719.7,367.201" stroke="#0000ff" stroke-width="2" fill="none"/>
   <polyline stroke-linejoin="round" stroke-linecap="round" points="732.956,367.198 732.383,368.962 730.883,370.051 729.029,370.051 727.529,368.962 726.956,367.198 727.529,365.435 729.029,364.345 730.883,364.345 732.383,365.435 732.956,367.198" stroke="#0000ff" stroke-width="2" fill="none"/>
   <polyline stroke-linejoin="round" stroke-linecap="round" points="746.213,367.196 745.64,368.959 744.14,370.049 742.286,370.049 740.786,368.959 740.213,367.196 740.786,365.433 742.286,364.343 744.14,364.343 745.64,365.433 746.213,367.196" stroke="#0000ff" stroke-width="2" fill="none"/>
   <polyline stroke-linejoin="round" stroke-linecap="round" points="759.469,367.194 758.896,368.958 757.396,370.047 755.542,370.047 754.042,368.958 753.469,367.194 754.042,365.431 755.542,364.341 757.396,364.341 758.896,365.431 759.469,367.194" stroke="#0000ff" stroke-width="2" fill="none"/>
   <polyline stroke-linejoin="round" stroke-linecap="round" points="772.725,367.193 772.153,368.956 770.653,370.046 768.798,370.046 767.298,368.956 766.725,367.193 767.298,365.43 768.798,364.34 770.653,364.34 772.153,365.43 772.725,367.193" stroke="#0000ff" stroke-width="2" fill="none"/>
   <polyline stroke-linejoin="round" stroke-linecap="round" points="785.982,367.192 785.409,368.955 783.909,370.045 782.055,370.045 780.555,368.955 779.982,367.192 780.555,365.429 782.055,364.339 783.909,364.339 785.409,365.429 785.982,367.192" stroke="#0000ff" stroke-width="2" fill="none"/>
   <polyline stroke-linejoin="round" stroke-linecap="round" points="799.238,367.192 798.665,368.955 797.165,370.045 795.311,370.045 793.811,368.955 793.238,367.192 793.811,365.428 795.311,364.339 797.165,364.339 798.665,365.428 799.238,367.192" stroke="#0000ff" stroke-width="2" fill="none"/>
   <polyline stroke-linejoin="round" stroke-linecap="round" points="812.495,367.191 811.922,368.955 810.422,370.045 808.568,370.045 807.068,368.955 806.495,367.191 807.068,365.428 808.568,364.338 810.422,364.338 811.922,365.428 812.495,367.191" stroke="#0000ff" stroke-width="2" fill="none"/>
   <polyline stroke-linejoin="round" stroke-linecap="round" points="825.751,367.191 825.178,368.955 823.678,370.045 821.824,370.045 820.324,368.955 819.751,367.191 820.324,365.428 821.824,364.338 823.678,364.338 825.178,365.428 825.751,367.191" stroke="#0000ff" stroke-width="2" fill="none"/>
   <polyline stroke-linejoin="round" stroke-linecap="round" points="839.007,367.191 838.434,368.955 836.934,370.045 835.08,370.045 833.58,368.955 833.007,367.191 833.58,365.428 835.08,364.338 836.934,364.338 838.434,365.428 839.007,367.191" stroke="#0000ff" stroke-width="2" fill="none"/>
   <polyline stroke-linejoin="round" stroke-linecap="round" points="852.264,367.192 851.691,368.955 850.191,370.045 848.337,370.045 846.837,368.955 846.264,367.192 846.837,365.428 848.337,364.338 850.191,364.338 851.691,365.428 852.264,367.192" stroke="#0000ff" stroke-width="2" fill="none"/>
   <polyline stroke-linejoin="round" stroke-linecap="round" points="865.52,367.192 864.947,368.955 863.447,370.045 861.593,370.045 860.093,368.955 859.52,367.192 860.093,365.428 861.593,364.339 863.447,364.339 864.947,365.428 865.52,367.192" stroke="#0000ff" stroke-width="2" fill="none"/>
   <polyline stroke-linejoin="round" stroke-linecap="round" points="878.777,367.192 878.204,368.955 876.704,370.045 874.85,370.045 873.349,368.955 872.777,367.192 873.349,365.429 874.85,364.339 876.704,364.339 878.204,365.429 878.777,367.192" stroke="#0000ff" stroke-width="2" fill="none"/>
   <polyline stroke-linejoin="round" stroke-linecap="round" points="892.033,367.192 891.46,368.955 889.96,370.045 888.106,370.045 886.606,368.955 886.033,367.192 886.606,365.429 888.106,364.339 889.96,364.339 891.46,365.429 892.033,367.192" stroke="#0000ff" stroke-width="2" fill="none"/>
   <polyline stroke-linejoin="round" stroke-linecap="round" points="905.289,367.192 904.716,368.955 903.216,370.045 901.362,370.045 899.862,368.955 899.289,367.192 899.862,365.429 901.362,364.339 903.216,364.339 904.716,365.429 905.289,367.192" stroke="#0000ff" stroke-width="2" fill="none"/>
   <polyline stroke-linejoin="round" stroke-linecap="round" points="918.546,367.192 917.973,368.956 916.473,370.045 914.619,370.045 913.119,368.956 912.546,367.192 913.119,365.429 914.619,364.339 916.473,364.339 917.973,365.429 918.546,367.192" stroke="#0000ff" stroke-width="2" fill="none"/>
   <polyline stroke-linejoin="round" stroke-linecap="round" points="931.802,367.192 931.229,368.956 929.729,370.045 927.875,370.045 926.375,368.956 925.802,367.192 926.375,365.429 927.875,364.339 929.729,364.339 931.229,365.429 931.802,367.192" stroke="#0000ff" stroke-width="2" fill="none"/>
   <polyline stroke-linejoin="round" stroke-linecap="butt" points="133.419,1121.63 146.676,1000.92 159.932,942.982 173.188,928.69 186.445,941.838 199.701,969.76 212.957,1003.3 226.214,1036.41 239.47,1065.55 252.727,1089.09 265.983,1106.67 279.239,1118.75 292.496,1126.22 305.752,1130.14 319.008,1131.5 332.265,1131.2 345.521,1129.95 358.778,1128.28 372.034,1126.55 385.29,1124.97 398.547,1123.66 411.803,1122.66 425.06,1121.95 438.316,1121.5 451.572,1121.25 464.829,1121.14 478.085,1121.13 491.341,1121.18 504.598,1121.26 517.854,1121.35 531.111,1121.44 544.367,1121.51 557.623,1121.57 570.88,1121.61 584.136,1121.63 597.393,1121.65 610.649,1121.66 623.905,1121.66 637.162,1121.66 650.418,1121.65 663.674,1121.65 676.931,1121.64 690.187,1121.64 703.444,1121.64 716.7,1121.64 729.956,1121.63 743.213,1121.63 756.469,1121.63 769.726,1121.63 782.982,1121.63 796.238,1121.63 809.495,1121.63 822.751,1121.63 836.007,1121.63 849.264,1121.63 862.52,1121.63 875.777,1121.63 889.033,1121.63 902.289,1121.63 915.546,1121.63 928.802,1121.63" stroke="#ff0000" stroke-width="2" fill="none"/>
   <polyline stroke-linejoin="round" stroke-linecap="round" points="136.419,1121.63 135.846,1123.4 134.346,1124.49 132.492,1124.49 130.992,1123.4 130.419,1121.63 130.992,1119.87 132.492,1118.78 134.346,1118.78 135.846,1119.87 136.419,1121.63" stroke="#ff0000" stroke-width="2" fill="none"/>
   <polyline stroke-linejoin="round" stroke-linecap="round" points="149.675,1000.92 149.103,1002.69 147.603,1003.78 145.748,1003.78 144.248,1002.69 143.675,1000.92 144.248,999.16 145.748,998.07 147.603,998.07 149.103,999.16 149.675,1000.92" stroke="#ff0000" stroke-width="2" fill="none"/>
   <polyline stroke-linejoin="round" stroke-linecap="round" points="162.932,942.982 162.359,944.745 160.859,945.835 159.005,945.835 157.505,944.745 156.932,942.982 157.505,941.218 159.005,940.129 160.859,940.129 162.359,941.218 162.932,942.982" stroke="#ff0000" stroke-width="2" fill="none"/>
   <polyline stroke-linejoin="round" stroke-linecap="round" points="176.188,928.69 175.615,930.453 174.115,931.543 172.261,931.543 170.761,930.453 170.188,928.69 170.761,926.926 172.261,925.836 174.115,925.836 175.615,926.926 176.188,928.69" stroke="#ff0000" stroke-width="2" fill="none"/>
   <polyline stroke-linejoin="round" stroke-linecap="round" points="189.445,941.838 188.872,943.602 187.372,944.692 185.518,944.692 184.018,943.602 183.445,941.838 184.018,940.075 185.518,938.985 187.372,938.985 188.872,940.075 189.445,941.838" stroke="#ff0000" stroke-width="2" fill="none"/>
   <polyline stroke-linejoin="round" stroke-linecap="round" points="202.701,969.759 202.128,971.523 200.628,972.613 198.774,972.613 197.274,971.523 196.701,969.759 197.274,967.996 198.774,966.906 200.628,966.906 202.128,967.996 202.701,969.759" stroke="#ff0000" stroke-width="2" fill="none"/>
   <polyline stroke-linejoin="round" stroke-linecap="round" points="215.957,1003.3 215.384,1005.06 213.884,1006.15 212.03,1006.15 210.53,1005.06 209.957,1003.3 210.53,1001.54 212.03,1000.45 213.884,1000.45 215.384,1001.54 215.957,1003.3" stroke="#ff0000" stroke-width="2" fill="none"/>
   <polyline stroke-linejoin="round" stroke-linecap="round" points="229.214,1036.41 228.641,1038.17 227.141,1039.26 225.287,1039.26 223.787,1038.17 223.214,1036.41 223.787,1034.64 225.287,1033.55 227.141,1033.55 228.641,1034.64 229.214,1036.41" stroke="#ff0000" stroke-width="2" fill="none"/>
   <polyline stroke-linejoin="round" stroke-linecap="round" points="242.47,1065.55 241.897,1067.32 240.397,1068.41 238.543,1068.41 237.043,1067.32 236.47,1065.55 237.043,1063.79 238.543,1062.7 240.397,1062.7 241.897,1063.79 242.47,1065.55" stroke="#ff0000" stroke-width="2" fill="none"/>
   <polyline stroke-linejoin="round" stroke-linecap="round" points="255.727,1089.09 255.154,1090.85 253.654,1091.94 251.799,1091.94 250.299,1090.85 249.727,1089.09 250.299,1087.32 251.799,1086.24 253.654,1086.24 255.154,1087.32 255.727,1089.09" stroke="#ff0000" stroke-width="2" fill="none"/>
   <polyline stroke-linejoin="round" stroke-linecap="round" points="268.983,1106.67 268.41,1108.43 266.91,1109.52 265.056,1109.52 263.556,1108.43 262.983,1106.67 263.556,1104.9 265.056,1103.81 266.91,1103.81 268.41,1104.9 268.983,1106.67" stroke="#ff0000" stroke-width="2" fill="none"/>
   <polyline stroke-linejoin="round" stroke-linecap="round" points="282.239,1118.75 281.666,1120.51 280.166,1121.6 278.312,1121.6 276.812,1120.51 276.239,1118.75 276.812,1116.99 278.312,1115.9 280.166,1115.9 281.666,1116.99 282.239,1118.75" stroke="#ff0000" stroke-width="2" fill="none"/>
   <polyline stroke-linejoin="round" stroke-linecap="round" points="295.496,1126.22 294.923,1127.99 293.423,1129.08 291.569,1129.08 290.069,1127.99 289.496,1126.22 290.069,1124.46 291.569,1123.37 293.423,1123.37 294.923,1124.46 295.496,1126.22" stroke="#ff0000" stroke-width="2" fill="none"/>
   <polyline stroke-linejoin="round" stroke-linecap="round" points="308.752,1130.14 308.179,1131.9 306.679,1132.99 304.825,1132.99 303.325,1131.9 302.752,1130.14 303.325,1128.37 304.825,1127.28 306.679,1127.28 308.179,1128.37 308.752,1130.14" stroke="#ff0000" stroke-width="2" fill="none"/>
   <polyline stroke-linejoin="round" stroke-linecap="round" points="322.008,1131.5 321.435,1133.26 319.935,1134.35 318.081,1134.35 316.581,1133.26 316.008,1131.5 316.581,1129.74 318.081,1128.65 319.935,1128.65 321.435,1129.74 322.008,1131.5" stroke="#ff0000" stroke-width="2" fill="none"/>
   <polyline stroke-linejoin="round" stroke-linecap="round" points="335.265,1131.2 334.692,1132.96 333.192,1134.05 331.338,1134.05 329.838,1132.96 329.265,1131.2 329.838,1129.44 331.338,1128.35 333.192,1128.35 334.692,1129.44 335.265,1131.2" stroke="#ff0000" stroke-width="2" fill="none"/>
   <polyline stroke-linejoin="round" stroke-linecap="round" points="348.521,1129.95 347.948,1131.72 346.448,1132.81 344.594,1132.81 343.094,1131.72 342.521,1129.95 343.094,1128.19 344.594,1127.1 346.448,1127.1 347.948,1128.19 348.521,1129.95" stroke="#ff0000" stroke-width="2" fill="none"/>
   <polyline stroke-linejoin="round" stroke-linecap="round" points="361.778,1128.28 361.205,1130.05 359.705,1131.14 357.851,1131.14 356.351,1130.05 355.778,1128.28 356.351,1126.52 357.851,1125.43 359.705,1125.43 361.205,1126.52 361.778,1128.28" stroke="#ff0000" stroke-width="2" fill="none"/>
   <polyline stroke-linejoin="round" stroke-linecap="round" points="375.034,1126.55 374.461,1128.31 372.961,1129.4 371.107,1129.4 369.607,1128.31 369.034,1126.55 369.607,1124.79 371.107,1123.7 372.961,1123.7 374.461,1124.79 375.034,1126.55" stroke="#ff0000" stroke-width="2" fill="none"/>
   <polyline stroke-linejoin="round" stroke-linecap="round" points="388.29,1124.97 387.717,1126.74 386.217,1127.83 384.363,1127.83 382.863,1126.74 382.29,1124.97 382.863,1123.21 384.363,1122.12 386.217,1122.12 387.717,1123.21 388.29,1124.97" stroke="#ff0000" stroke-width="2" fill="none"/>
   <polyline stroke-linejoin="round" stroke-linecap="round" points="401.547,1123.66 400.974,1125.43 399.474,1126.52 397.62,1126.52 396.12,1125.43 395.547,1123.66 396.12,1121.9 397.62,1120.81 399.474,1120.81 400.974,1121.9 401.547,1123.66" stroke="#ff0000" stroke-width="2" fill="none"/>
   <polyline stroke-linejoin="round" stroke-linecap="round" points="414.803,1122.66 414.23,1124.43 412.73,1125.52 410.876,1125.52 409.376,1124.43 408.803,1122.66 409.376,1120.9 410.876,1119.81 412.73,1119.81 414.23,1120.9 414.803,1122.66" stroke="#ff0000" stroke-width="2" fill="none"/>
   <polyline stroke-linejoin="round" stroke-linecap="round" points="428.06,1121.95 427.487,1123.72 425.987,1124.81 424.132,1124.81 422.632,1123.72 422.06,1121.95 422.632,1120.19 424.132,1119.1 425.987,1119.1 427.487,1120.19 428.06,1121.95" stroke="#ff0000" stroke-width="2" fill="none"/>
   <polyline stroke-linejoin="round" stroke-linecap="round" points="441.316,1121.5 440.743,1123.26 439.243,1124.35 437.389,1124.35 435.889,1123.26 435.316,1121.5 435.889,1119.74 437.389,1118.65 439.243,1118.65 440.743,1119.74 441.316,1121.5" stroke="#ff0000" stroke-width="2" fill="none"/>
   <polyline stroke-linejoin="round" stroke-linecap="round" points="454.572,1121.25 453.999,1123.01 452.499,1124.1 450.645,1124.1 449.145,1123.01 448.572,1121.25 449.145,1119.48 450.645,1118.39 452.499,1118.39 453.999,1119.48 454.572,1121.25" stroke="#ff0000" stroke-width="2" fill="none"/>
   <polyline stroke-linejoin="round" stroke-linecap="round" points="467.829,1121.14 467.256,1122.9 465.756,1123.99 463.902,1123.99 462.402,1122.9 461.829,1121.14 462.402,1119.37 463.902,1118.28 465.756,1118.28 467.256,1119.37 467.829,1121.14" stroke="#ff0000" stroke-width="2" fill="none"/>
   <polyline stroke-linejoin="round" stroke-linecap="round" points="481.085,1121.13 480.512,1122.89 479.012,1123.98 477.158,1123.98 475.658,1122.89 475.085,1121.13 475.658,1119.37 477.158,1118.28 479.012,1118.28 480.512,1119.37 481.085,1121.13" stroke="#ff0000" stroke-width="2" fill="none"/>
   <polyline stroke-linejoin="round" stroke-linecap="round" points="494.341,1121.18 493.768,1122.94 492.268,1124.03 490.414,1124.03 488.914,1122.94 488.341,1121.18 488.914,1119.42 490.414,1118.33 492.268,1118.33 493.768,1119.42 494.341,1121.18" stroke="#ff0000" stroke-width="2" fill="none"/>
   <polyline stroke-linejoin="round" stroke-linecap="round" points="507.598,1121.26 507.025,1123.03 505.525,1124.12 503.671,1124.12 502.171,1123.03 501.598,1121.26 502.171,1119.5 503.671,1118.41 505.525,1118.41 507.025,1119.5 507.598,1121.26" stroke="#ff0000" stroke-width="2" fill="none"/>
   <polyline stroke-linejoin="round" stroke-linecap="round" points="520.854,1121.35 520.281,1123.12 518.781,1124.21 516.927,1124.21 515.427,1123.12 514.854,1121.35 515.427,1119.59 516.927,1118.5 518.781,1118.5 520.281,1119.59 520.854,1121.35" stroke="#ff0000" stroke-width="2" fill="none"/>
   <polyline stroke-linejoin="round" stroke-linecap="round" points="534.111,1121.44 533.538,1123.2 532.038,1124.29 530.184,1124.29 528.684,1123.2 528.111,1121.44 528.684,1119.67 530.184,1118.58 532.038,1118.58 533.538,1119.67 534.111,1121.44" stroke="#ff0000" stroke-width="2" fill="none"/>
   <polyline stroke-linejoin="round" stroke-linecap="round" points="547.367,1121.51 546.794,1123.27 545.294,1124.36 543.44,1124.36 541.94,1123.27 541.367,1121.51 541.94,1119.75 543.44,1118.66 545.294,1118.66 546.794,1119.75 547.367,1121.51" stroke="#ff0000" stroke-width="2" fill="none"/>
   <polyline stroke-linejoin="round" stroke-linecap="round" points="560.623,1121.57 560.05,1123.33 558.55,1124.42 556.696,1124.42 555.196,1123.33 554.623,1121.57 555.196,1119.8 556.696,1118.71 558.55,1118.71 560.05,1119.8 560.623,1121.57" stroke="#ff0000" stroke-width="2" fill="none"/>
   <polyline stroke-linejoin="round" stroke-linecap="round" points="573.88,1121.61 573.307,1123.37 571.807,1124.46 569.953,1124.46 568.453,1123.37 567.88,1121.61 568.453,1119.84 569.953,1118.75 571.807,1118.75 573.307,1119.84 573.88,1121.61" stroke="#ff0000" stroke-width="2" fill="none"/>
   <polyline stroke-linejoin="round" stroke-linecap="round" points="587.136,1121.63 586.563,1123.4 585.063,1124.49 583.209,1124.49 581.709,1123.4 581.136,1121.63 581.709,1119.87 583.209,1118.78 585.063,1118.78 586.563,1119.87 587.136,1121.63" stroke="#ff0000" stroke-width="2" fill="none"/>
   <polyline stroke-linejoin="round" stroke-linecap="round" points="600.393,1121.65 599.82,1123.41 598.32,1124.5 596.465,1124.5 594.966,1123.41 594.393,1121.65 594.966,1119.89 596.465,1118.8 598.32,1118.8 599.82,1119.89 600.393,1121.65" stroke="#ff0000" stroke-width="2" fill="none"/>
   <polyline stroke-linejoin="round" stroke-linecap="round" points="613.649,1121.66 613.076,1123.42 611.576,1124.51 609.722,1124.51 608.222,1123.42 607.649,1121.66 608.222,1119.89 609.722,1118.8 611.576,1118.8 613.076,1119.89 613.649,1121.66" stroke="#ff0000" stroke-width="2" fill="none"/>
   <polyline stroke-linejoin="round" stroke-linecap="round" points="626.905,1121.66 626.332,1123.42 624.832,1124.51 622.978,1124.51 621.478,1123.42 620.905,1121.66 621.478,1119.9 622.978,1118.81 624.832,1118.81 626.332,1119.9 626.905,1121.66" stroke="#ff0000" stroke-width="2" fill="none"/>
   <polyline stroke-linejoin="round" stroke-linecap="round" points="640.162,1121.66 639.589,1123.42 638.089,1124.51 636.235,1124.51 634.735,1123.42 634.162,1121.66 634.735,1119.89 636.235,1118.8 638.089,1118.8 639.589,1119.89 640.162,1121.66" stroke="#ff0000" stroke-width="2" fill="none"/>
   <polyline stroke-linejoin="round" stroke-linecap="round" points="653.418,1121.65 652.845,1123.42 651.345,1124.51 649.491,1124.51 647.991,1123.42 647.418,1121.65 647.991,1119.89 649.491,1118.8 651.345,1118.8 652.845,1119.89 653.418,1121.65" stroke="#ff0000" stroke-width="2" fill="none"/>
   <polyline stroke-linejoin="round" stroke-linecap="round" points="666.674,1121.65 666.102,1123.41 664.602,1124.5 662.747,1124.5 661.247,1123.41 660.674,1121.65 661.247,1119.89 662.747,1118.8 664.602,1118.8 666.102,1119.89 666.674,1121.65" stroke="#ff0000" stroke-width="2" fill="none"/>
   <polyline stroke-linejoin="round" stroke-linecap="round" points="679.931,1121.64 679.358,1123.41 677.858,1124.5 676.004,1124.5 674.504,1123.41 673.931,1121.64 674.504,1119.88 676.004,1118.79 677.858,1118.79 679.358,1119.88 679.931,1121.64" stroke="#ff0000" stroke-width="2" fill="none"/>
   <polyline stroke-linejoin="round" stroke-linecap="round" points="693.187,1121.64 692.614,1123.4 691.114,1124.49 689.26,1124.49 687.76,1123.4 687.187,1121.64 687.76,1119.88 689.26,1118.79 691.114,1118.79 692.614,1119.88 693.187,1121.64" stroke="#ff0000" stroke-width="2" fill="none"/>
   <polyline stroke-linejoin="round" stroke-linecap="round" points="706.444,1121.64 705.871,1123.4 704.371,1124.49 702.517,1124.49 701.017,1123.4 700.444,1121.64 701.017,1119.87 702.517,1118.78 704.371,1118.78 705.871,1119.87 706.444,1121.64" stroke="#ff0000" stroke-width="2" fill="none"/>
   <polyline stroke-linejoin="round" stroke-linecap="round" points="719.7,1121.64 719.127,1123.4 717.627,1124.49 715.773,1124.49 714.273,1123.4 713.7,1121.64 714.273,1119.87 715.773,1118.78 717.627,1118.78 719.127,1119.87 719.7,1121.64" stroke="#ff0000" stroke-width="2" fill="none"/>
   <polyline stroke-linejoin="round" stroke-linecap="round" points="732.956,1121.63 732.383,1123.4 730.883,1124.49 729.029,1124.49 727.529,1123.4 726.956,1121.63 727.529,1119.87 729.029,1118.78 730.883,1118.78 732.383,1119.87 732.956,1121.63" stroke="#ff0000" stroke-width="2" fill="none"/>
   <polyline stroke-linejoin="round" stroke-linecap="round" points="746.213,1121.63 745.64,1123.4 744.14,1124.49 742.286,1124.49 740.786,1123.4 740.213,1121.63 740.786,1119.87 742.286,1118.78 744.14,1118.78 745.64,1119.87 746.213,1121.63" stroke="#ff0000" stroke-width="2" fill="none"/>
   <polyline stroke-linejoin="round" stroke-linecap="round" points="759.469,1121.63 758.896,1123.4 757.396,1124.49 755.542,1124.49 754.042,1123.4 753.469,1121.63 754.042,1119.87 755.542,1118.78 757.396,1118.78 758.896,1119.87 759.469,1121.63" stroke="#ff0000" stroke-width="2" fill="none"/>
   <polyline stroke-linejoin="round" stroke-linecap="round" points="772.725,1121.63 772.153,1123.4 770.653,1124.49 768.798,1124.49 767.298,1123.4 766.725,1121.63 767.298,1119.87 768.798,1118.78 770.653,1118.78 772.153,1119.87 772.725,1121.63" stroke="#ff0000" stroke-width="2" fill="none"/>
   <polyline stroke-linejoin="round" stroke-linecap="round" points="785.982,1121.63 785.409,1123.4 783.909,1124.49 782.055,1124.49 780.555,1123.4 779.982,1121.63 780.555,1119.87 782.055,1118.78 783.909,1118.78 785.409,1119.87 785.982,1121.63" stroke="#ff0000" stroke-width="2" fill="none"/>
   <polyline stroke-linejoin="round" stroke-linecap="round" points="799.238,1121.63 798.665,1123.4 797.165,1124.49 795.311,1124.49 793.811,1123.4 793.238,1121.63 793.811,1119.87 795.311,1118.78 797.165,1118.78 798.665,1119.87 799.238,1121.63" stroke="#ff0000" stroke-width="2" fill="none"/>
   <polyline stroke-linejoin="round" stroke-linecap="round" points="812.495,1121.63 811.922,1123.4 810.422,1124.49 808.568,1124.49 807.068,1123.4 806.495,1121.63 807.068,1119.87 808.568,1118.78 810.422,1118.78 811.922,1119.87 812.495,1121.63" stroke="#ff0000" stroke-width="2" fill="none"/>
   <polyline stroke-linejoin="round" stroke-linecap="round" points="825.751,1121.63 825.178,1123.4 823.678,1124.49 821.824,1124.49 820.324,1123.4 819.751,1121.63 820.324,1119.87 821.824,1118.78 823.678,1118.78 825.178,1119.87 825.751,1121.63" stroke="#ff0000" stroke-width="2" fill="none"/>
   <polyline stroke-linejoin="round" stroke-linecap="round" points="839.007,1121.63 838.434,1123.4 836.934,1124.49 835.08,1124.49 833.58,1123.4 833.007,1121.63 833.58,1119.87 835.08,1118.78 836.934,1118.78 838.434,1119.87 839.007,1121.63" stroke="#ff0000" stroke-width="2" fill="none"/>
   <polyline stroke-linejoin="round" stroke-linecap="round" points="852.264,1121.63 851.691,1123.4 850.191,1124.49 848.337,1124.49 846.837,1123.4 846.264,1121.63 846.837,1119.87 848.337,1118.78 850.191,1118.78 851.691,1119.87 852.264,1121.63" stroke="#ff0000" stroke-width="2" fill="none"/>
   <polyline stroke-linejoin="round" stroke-linecap="round" points="865.52,1121.63 864.947,1123.4 863.447,1124.49 861.593,1124.49 860.093,1123.4 859.52,1121.63 860.093,1119.87 861.593,1118.78 863.447,1118.78 864.947,1119.87 865.52,1121.63" stroke="#ff0000" stroke-width="2" fill="none"/>
   <polyline stroke-linejoin="round" stroke-linecap="round" points="878.777,1121.63 878.204,1123.4 876.704,1124.49 874.85,1124.49 873.349,1123.4 872.777,1121.63 873.349,1119.87 874.85,1118.78 876.704,1118.78 878.204,1119.87 878.777,1121.63" stroke="#ff0000" stroke-width="2" fill="none"/>
   <polyline stroke-linejoin="round" stroke-linecap="round" points="892.033,1121.63 891.46,1123.4 889.96,1124.49 888.106,1124.49 886.606,1123.4 886.033,1121.63 886.606,1119.87 888.106,1118.78 889.96,1118.78 891.46,1119.87 892.033,1121.63" stroke="#ff0000" stroke-width="2" fill="none"/>
   <polyline stroke-linejoin="round" stroke-linecap="round" points="905.289,1121.63 904.716,1123.4 903.216,1124.49 901.362,1124.49 899.862,1123.4 899.289,1121.63 899.862,1119.87 901.362,1118.78 903.216,1118.78 904.716,1119.87 905.289,1121.63" stroke="#ff0000" stroke-width="2" fill="none"/>
   <polyline stroke-linejoin="round" stroke-linecap="round" points="918.546,1121.63 917.973,1123.4 916.473,1124.49 914.619,1124.49 913.119,1123.4 912.546,1121.63 913.119,1119.87 914.619,1118.78 916.473,1118.78 917.973,1119.87 918.546,1121.63" stroke="#ff0000" stroke-width="2" fill="none"/>
   <polyline stroke-linejoin="round" stroke-linecap="round" points="931.802,1121.63 931.229,1123.4 929.729,1124.49 927.875,1124.49 926.375,1123.4 925.802,1121.63 926.375,1119.87 927.875,1118.78 929.729,1118.78 931.229,1119.87 931.802,1121.63" stroke="#ff0000" stroke-width="2" fill="none"/>
  </g>
  <clipPath id="cp0010261542">
   <polygon points="0,1542 1026,1542 1026,0 0,0"/>
  </clipPath>
  <g clip-path="url(#cp0010261542)">
   <polygon points="880.785,152.528 920.799,152.528 920.799,123.715 880.785,123.715" shape-rendering="crispEdges" fill="#ffffff"/>
   <polyline stroke-linejoin="miter" stroke-linecap="square" points="880.785,152.528 920.799,152.528" stroke="#262626" stroke-dasharray="16,0" stroke-width="0.5" fill="none"/>
   <polyline stroke-linejoin="miter" stroke-linecap="square" points="880.785,123.715 920.799,123.715" stroke="#262626" stroke-dasharray="16,0" stroke-width="0.5" fill="none"/>
   <polyline stroke-linejoin="miter" stroke-linecap="square" points="880.785,152.528 880.785,123.715" stroke="#262626" stroke-dasharray="16,0" stroke-width="0.5" fill="none"/>
   <polyline stroke-linejoin="miter" stroke-linecap="square" points="920.799,152.528 920.799,123.715" stroke="#262626" stroke-dasharray="16,0" stroke-width="0.5" fill="none"/>
   <polyline stroke-linejoin="round" stroke-linecap="butt" points="884.786,131.919 904.795,131.919" stroke="#0000ff" stroke-width="2" fill="none"/>
   <polyline stroke-linejoin="round" stroke-linecap="round" points="897.791,131.919 897.218,133.682 895.718,134.772 893.864,134.772 892.364,133.682 891.791,131.919 892.364,130.156 893.864,129.066 895.718,129.066 897.218,130.156 897.791,131.919" stroke="#0000ff" stroke-width="0.5" fill="none"/>
   <g font-weight="normal" transform="translate(908.797,135.919) rotate(-0,-0,-4)" xml:space="preserve" font-family="FreeSans" font-size="9" font-style="normal">
    <text x="0 3 " y="-0" fill="rgb(0,0,0)">I1</text>
   </g>
   <polyline stroke-linejoin="round" stroke-linecap="butt" points="884.786,144.324 904.795,144.324" stroke="#ff0000" stroke-width="2" fill="none"/>
   <polyline stroke-linejoin="round" stroke-linecap="round" points="897.791,144.324 897.218,146.088 895.718,147.177 893.864,147.177 892.364,146.088 891.791,144.324 892.364,142.561 893.864,141.471 895.718,141.471 897.218,142.561 897.791,144.324" stroke="#ff0000" stroke-width="0.5" fill="none"/>
   <g font-weight="normal" transform="translate(908.797,148.324) rotate(-0,-0,-4)" xml:space="preserve" font-family="FreeSans" font-size="9" font-style="normal">
    <text x="0 3 " y="-0" fill="rgb(0,0,0)">I2</text>
   </g>
  </g>
 </g>
</svg>
